<?xml version="1.0" standalone="no"?>
<!DOCTYPE svg PUBLIC "-//W3C//DTD SVG 20010904//EN"
 "http://www.w3.org/TR/2001/REC-SVG-20010904/DTD/svg10.dtd">
<svg version="1.0" xmlns="http://www.w3.org/2000/svg"
 width="72.000000pt" height="72.000000pt" viewBox="0 0 72.000000 72.000000"
 preserveAspectRatio="xMidYMid meet">
<metadata>
Created by potrace 1.11, written by Peter Selinger 2001-2013
</metadata>
<g transform="translate(0.000000,72.000000) scale(0.100000,-0.100000)"
fill="#000000" stroke="none">
<path d="M317 672 c-23 -25 -21 -58 3 -82 11 -11 20 -33 20 -50 0 -24 -8 -35
-42 -56 -40 -26 -43 -26 -72 -10 -17 9 -38 31 -46 49 -26 57 -110 44 -110 -17
0 -39 24 -60 66 -59 22 1 51 -6 67 -15 23 -14 27 -23 27 -63 0 -42 -3 -49 -33
-66 -21 -13 -44 -18 -69 -15 -30 3 -39 0 -53 -22 -32 -49 6 -105 62 -91 15 3
30 18 38 39 9 21 26 38 45 46 28 12 36 11 68 -8 32 -18 37 -26 40 -61 2 -25
-3 -50 -12 -63 -21 -30 -20 -61 2 -81 26 -24 68 -21 86 5 21 30 20 54 -4 78
-12 12 -20 33 -20 55 0 30 6 38 41 61 45 28 78 27 104 -4 55 -65 66 -73 88
-67 28 9 47 33 47 61 0 34 -27 55 -69 53 -20 -1 -51 5 -68 15 -30 15 -33 21
-33 61 0 40 4 48 32 65 20 12 41 17 55 14 14 -4 34 1 48 10 46 30 23 106 -33
106 -21 0 -52 -24 -52 -41 0 -14 -51 -59 -67 -59 -7 0 -31 11 -53 25 -32 20
-40 31 -40 55 0 17 9 39 20 50 11 11 20 31 20 43 0 50 -70 76 -103 39z m74
-18 c17 -21 0 -49 -31 -49 -31 0 -48 28 -31 49 8 9 21 16 31 16 10 0 23 -7 31
-16z m-236 -149 c0 -25 -4 -30 -24 -30 -32 0 -49 28 -31 50 7 9 23 15 34 13
16 -2 21 -10 21 -33z m463 23 c17 -17 15 -43 -4 -59 -31 -26 -70 25 -44 56 15
18 32 19 48 3z m-200 -69 l53 -30 -3 -66 -3 -66 -52 -29 -53 -30 -53 30 -52
29 -3 66 -3 66 53 30 c29 17 55 31 58 31 3 0 29 -14 58 -31z m-268 -208 c15
-29 2 -51 -30 -51 -16 0 -30 7 -34 16 -9 22 11 54 34 54 11 0 24 -9 30 -19z
m481 3 c17 -21 0 -49 -32 -49 -24 0 -36 23 -25 51 7 19 40 18 57 -2z m-242
-148 c9 -11 10 -20 1 -35 -21 -40 -79 -15 -65 29 7 24 46 27 64 6z"/>
<path d="M308 447 c-37 -22 -38 -23 -38 -82 l0 -60 45 -25 45 -25 45 25 45 25
0 60 c0 59 -1 60 -40 83 -48 27 -55 27 -102 -1z"/>
</g>
</svg>
