<?xml version="1.0" encoding="utf-8"?>
<!-- Generator: Adobe Illustrator 24.2.2, SVG Export Plug-In . SVG Version: 6.00 Build 0)  -->
<svg version="1.1" xmlns="http://www.w3.org/2000/svg" xmlns:xlink="http://www.w3.org/1999/xlink" x="0px" y="0px"
	 viewBox="0 0 32 32" style="enable-background:new 0 0 32 32;" xml:space="preserve">
<style type="text/css">
	.st0{display:none;}
	.st1{display:inline;fill:#00BCF1;}
	.st2{fill:#20AF97;}
	.st3{fill:none;}
	.st4{fill:#00A388;}
	.st5{fill:#498C8C;}
	.st6{fill:#D9C5D2;}
	.st7{fill:#C6B9D6;}
	.st8{fill:#498183;}
	.st9{fill:#F22E52;}
	.st10{fill:#D92E52;}
	.st11{fill:#FFD35F;}
	.st12{fill:#FFC85F;}
	.st13{fill:#E81241;}
	.st14{fill:#231F20;}
	.st15{fill:#FC314F;}
	.st16{fill:#81D4E5;}
	.st17{fill:none;stroke:#000000;stroke-miterlimit:10;}
	.st18{fill:none;stroke:#4E566B;stroke-width:2;stroke-linejoin:round;stroke-miterlimit:10;}
	.st19{fill:#4E566B;}
	.st20{fill:#1D2939;}
	.st21{fill:none;stroke:#F22E52;stroke-width:4;stroke-linecap:round;stroke-miterlimit:10;}
	.st22{fill:none;stroke:#4E566B;stroke-width:4;stroke-linecap:round;stroke-miterlimit:10;}
	.st23{fill:#FF6138;}
	.st24{fill:#424A60;}
	.st25{fill:#EBBA16;}
	.st26{fill:#7383BF;}
	.st27{fill:#43B05C;}
	.st28{fill:#FFFFFF;}
	.st29{fill:none;stroke:#333333;stroke-width:2;stroke-miterlimit:10;}
	.st30{fill:none;stroke:#FFD35F;stroke-width:5;stroke-miterlimit:10;}
	.st31{fill:#8CD0D8;}
	.st32{display:inline;fill:#81D4E5;}
	.st33{display:inline;fill:#FC314F;}
	.st34{fill:none;stroke:#333333;stroke-width:2;stroke-linejoin:round;stroke-miterlimit:10;}
	.st35{fill:none;stroke:#333333;stroke-width:3;stroke-miterlimit:10;}
	.st36{fill:#4BB5C1;}
	.st37{fill:#333333;}
	.st38{fill:#B7E1E6;}
	.st39{fill:#CCCCCC;}
	.st40{fill:#B4B4B4;}
	.st41{fill:#53A9C1;}
	.st42{fill:#0A9388;}
	.st43{fill:#E95A38;}
	.st44{fill:#935D55;}
	.st45{fill:#95A841;}
	.st46{fill:#F57D0B;}
	.st47{fill:#BC2822;}
	.st48{fill:#FFCB03;}
	.st49{fill:#F29401;}
	.st50{fill:#AF8667;}
	.st51{fill:#E4D7C8;}
	.st52{fill:#D49D54;}
	.st53{fill:#7B261C;}
	.st54{fill:url(#SVGID_1_);}
	.st55{fill:url(#SVGID_2_);}
	.st56{fill:url(#SVGID_3_);}
	.st57{fill:url(#SVGID_4_);}
	.st58{fill:url(#SVGID_5_);}
	.st59{fill:url(#SVGID_6_);}
	.st60{fill:url(#SVGID_7_);}
	.st61{fill:url(#SVGID_8_);}
	.st62{fill:url(#SVGID_9_);}
	.st63{fill:url(#SVGID_10_);}
	.st64{fill:url(#SVGID_11_);}
	.st65{fill:url(#SVGID_12_);}
	.st66{fill:url(#SVGID_13_);}
	.st67{fill:url(#SVGID_14_);}
	.st68{fill:url(#SVGID_15_);}
	.st69{fill:url(#SVGID_16_);}
	.st70{fill:url(#SVGID_17_);}
	.st71{fill:url(#SVGID_18_);}
	.st72{fill:url(#SVGID_19_);}
	.st73{fill:url(#SVGID_20_);}
</style>
<g id="Layer_1">
</g>
<g id="Layer_2">
	<g>
		<path class="st44" d="M18.622,21.205c-3.808,0-6.905-3.098-6.905-6.905c0-3.807,3.098-6.905,6.905-6.905
			c3.807,0,6.905,3.098,6.905,6.905C25.527,18.107,22.43,21.205,18.622,21.205z M18.622,8.433c-3.235,0-5.867,2.632-5.867,5.866
			c0,3.235,2.632,5.867,5.867,5.867c3.235,0,5.866-2.632,5.866-5.867C24.489,11.065,21.857,8.433,18.622,8.433z"/>
		<circle class="st45" cx="18.622" cy="14.299" r="2.554"/>
		<g>
			
				<rect x="21.198" y="6.033" transform="matrix(0.6294 -0.7771 0.7771 0.6294 4.0359 21.5678)" class="st44" width="6.861" height="1.039"/>
			<circle class="st46" cx="27.851" cy="2.422" r="2.077"/>
		</g>
		<g>
			
				<rect x="8.408" y="7.94" transform="matrix(0.2877 -0.9577 0.9577 0.2877 -4.5312 16.648)" class="st44" width="1.039" height="6.86"/>
			<circle class="st47" cx="3.808" cy="9.789" r="2.077"/>
		</g>
		<g>
			
				<rect x="20.656" y="20.784" transform="matrix(0.9784 -0.2068 0.2068 0.9784 -4.5498 4.9027)" class="st44" width="1.039" height="6.861"/>
			<circle class="st48" cx="22.244" cy="29.267" r="2.077"/>
		</g>
	</g>
</g>
</svg>
