<?xml version="1.0" encoding="utf-8" standalone="yes"?><!-- Generator: Adobe Illustrator 24.2.0, SVG Export Plug-In . SVG Version: 6.00 Build 0)  --><svg xmlns="http://www.w3.org/2000/svg" xmlns:xlink="http://www.w3.org/1999/xlink" x="0px" style="enable-background:new 0 0 244.1 79.5;zoom: 1;" cursor="crosshair" y="0px" id="Layer_1" xml:space="preserve" version="1.1" viewBox="0 0 244.1 79.5"><style type="text/css">
        .st0{fill:#6CA53A;}
        .st1{fill:#C52026;}
        .st2{fill:#FFFFFF;}
        .st3{fill:#5B692C;}
        .st4{fill:#910200;}
        .st5{fill:#FFFFFF;stroke:#FFFFFF;stroke-width:0.3599;stroke-miterlimit:10;}
        .st6{fill:none;stroke:#B34137;stroke-width:2;stroke-linecap:round;stroke-miterlimit:10;}
        .st7{fill:#665939;}
        .st8{fill-rule:evenodd;clip-rule:evenodd;fill:#BC2822;}
        .st9{fill-rule:evenodd;clip-rule:evenodd;fill:#9B1105;}
        .st10{fill-rule:evenodd;clip-rule:evenodd;fill:#FFCB03;}
        .st11{fill-rule:evenodd;clip-rule:evenodd;fill:#FEBD0A;}
        .st12{fill-rule:evenodd;clip-rule:evenodd;fill:#BBBC32;}
        .st13{fill-rule:evenodd;clip-rule:evenodd;fill:#95A841;}
        .st14{fill:#FFCB03;}
        .st15{fill:#F29401;}
        .st16{fill:#AF8667;}
        .st17{fill:#E4D7C8;}
        .st18{fill:#D49D54;}
        .st19{fill:#935D55;}
        .st20{fill:#BC2822;}
        .st21{fill:#7B261C;}
        .st22{fill:#F57D0B;}
        .st23{fill:#B85828;}
        .st24{fill:#BBBC32;}
        .st25{fill:url(#SVGID_1_);}
        .st26{fill:url(#SVGID_2_);}
        .st27{fill:url(#SVGID_3_);}
        .st28{fill:url(#SVGID_4_);}
        .st29{fill:url(#SVGID_5_);}
        .st30{fill-rule:evenodd;clip-rule:evenodd;fill:#7B261C;}
        .st31{fill:url(#SVGID_8_);}
        .st32{fill:url(#SVGID_9_);}
        .st33{fill:url(#SVGID_10_);}
        .st34{fill:url(#SVGID_11_);}
        .st35{fill:url(#SVGID_12_);}
        .st36{fill:#401216;}
</style><g visibility="visible"><g><path class="st14" d="M28.3,1.8c-3.4,0-6.1,2.7-6.1,6.1c0,3.4,2.7,6.1,6.1,6.1c3.4,0,6.1-2.7,6.1-6.1C34.4,4.5,31.7,1.8,28.3,1.8z"></path><path class="st14" d="M28.3,16.8c-3.4,0-6.1,2.7-6.1,6.1v19.9c0,3.3,2.7,6.1,6.1,6.1c3.4,0,6.1-2.7,6.1-6.1V22.9 C34.4,19.5,31.7,16.8,28.3,16.8z"></path><path class="st15" d="M42.2,19.3c-2.4,0-4.3,1.9-4.3,4.3v13.9c0,2.3,1.9,4.3,4.3,4.3c2.3,0,4.3-1.9,4.3-4.3V23.6 C46.5,21.3,44.6,19.3,42.2,19.3z"></path><path class="st16" d="M14.5,8.8c-2.4,0-4.3,1.9-4.3,4.3c0,2.4,1.9,4.3,4.3,4.3c2.4,0,4.3-1.9,4.3-4.3C18.7,10.8,16.8,8.8,14.5,8.8 z"></path><path class="st16" d="M14.5,19.3c-2.3,0-4.3,1.9-4.3,4.3v13.9c0,2.3,1.9,4.3,4.3,4.3c2.3,0,4.3-1.9,4.3-4.3V23.6 C18.7,21.3,16.8,19.3,14.5,19.3z"></path><path class="st15" d="M42.2,8.8c-2.4,0-4.3,1.9-4.3,4.3c0,2.4,1.9,4.3,4.3,4.3c2.3,0,4.3-1.9,4.3-4.3C46.5,10.8,44.6,8.8,42.2,8.8 z"></path><path class="st16" d="M51,21.9c1,0,1.8-0.8,1.8-1.8c0-1-0.8-1.8-1.8-1.8c-1,0-1.8,0.8-1.8,1.8C49.2,21.1,50,21.9,51,21.9z"></path><path class="st17" d="M5.6,22.8c-1,0-1.8,0.8-1.8,1.8v6c0,1,0.8,1.8,1.8,1.8c1,0,1.8-0.8,1.8-1.8v-6C7.5,23.6,6.7,22.8,5.6,22.8z"></path><path class="st17" d="M5.6,18.3c-1,0-1.8,0.8-1.8,1.8c0,1,0.8,1.8,1.8,1.8c1,0,1.8-0.8,1.8-1.8C7.5,19.1,6.7,18.3,5.6,18.3z"></path><path class="st16" d="M51,22.8c-1,0-1.8,0.8-1.8,1.8v6c0,1,0.8,1.8,1.8,1.8c1,0,1.8-0.8,1.8-1.8v-6C52.9,23.6,52,22.8,51,22.8z"></path></g><g><path class="st18" d="M216.6,1.8c-3.4,0-6.1,2.7-6.1,6.1c0,3.4,2.7,6.1,6.1,6.1c3.4,0,6.1-2.7,6.1-6.1 C222.7,4.5,219.9,1.8,216.6,1.8z"></path><path class="st18" d="M216.6,16.8c-3.4,0-6.1,2.7-6.1,6.1v19.9c0,3.3,2.7,6.1,6.1,6.1c3.4,0,6.1-2.7,6.1-6.1V22.9 C222.7,19.5,219.9,16.8,216.6,16.8z"></path><path class="st19" d="M230.5,19.3c-2.4,0-4.3,1.9-4.3,4.3v13.9c0,2.3,1.9,4.3,4.3,4.3c2.3,0,4.3-1.9,4.3-4.3V23.6 C234.7,21.3,232.8,19.3,230.5,19.3z"></path><path class="st20" d="M202.7,8.8c-2.4,0-4.3,1.9-4.3,4.3c0,2.4,1.9,4.3,4.3,4.3c2.4,0,4.3-1.9,4.3-4.3 C207,10.8,205.1,8.8,202.7,8.8z"></path><path class="st20" d="M202.7,19.3c-2.3,0-4.3,1.9-4.3,4.3v13.9c0,2.3,1.9,4.3,4.3,4.3c2.3,0,4.3-1.9,4.3-4.3V23.6 C207,21.3,205,19.3,202.7,19.3z"></path><path class="st19" d="M230.5,8.8c-2.4,0-4.3,1.9-4.3,4.3c0,2.4,1.9,4.3,4.3,4.3c2.3,0,4.3-1.9,4.3-4.3 C234.7,10.8,232.8,8.8,230.5,8.8z"></path><path class="st21" d="M239.3,21.9c1,0,1.8-0.8,1.8-1.8c0-1-0.8-1.8-1.8-1.8c-1,0-1.8,0.8-1.8,1.8 C237.4,21.1,238.3,21.9,239.3,21.9z"></path><path class="st22" d="M193.9,22.8c-1,0-1.8,0.8-1.8,1.8v6c0,1,0.8,1.8,1.8,1.8c1,0,1.8-0.8,1.8-1.8v-6 C195.7,23.6,194.9,22.8,193.9,22.8z"></path><path class="st22" d="M193.9,18.3c-1,0-1.8,0.8-1.8,1.8c0,1,0.8,1.8,1.8,1.8c1,0,1.8-0.8,1.8-1.8 C195.7,19.1,194.9,18.3,193.9,18.3z"></path><path class="st21" d="M239.3,22.8c-1,0-1.8,0.8-1.8,1.8v6c0,1,0.8,1.8,1.8,1.8c1,0,1.8-0.8,1.8-1.8v-6 C241.1,23.6,240.3,22.8,239.3,22.8z"></path></g><g><linearGradient id="SVGID_1_" gradientUnits="userSpaceOnUse" x1="57.6089" y1="25.005" x2="189.2952" y2="28.3304"><stop offset="0" style="stop-color:#B5A64C"></stop><stop offset="0.5" style="stop-color:#95A841"></stop><stop offset="1" style="stop-color:#9A8F29"></stop></linearGradient><path class="st25" d="M57.5,35.2c0-2,2.4-3.7,2.7-3.5c1.9,2.2,5.4,4.2,9.2,4.2c3.7,0,5.7-1.3,5.7-3.7c0-2.8-3.1-3.4-6.8-4.2 c-4.9-1.1-10-2.9-10-9.3c0-5.8,4.6-9.6,12.1-9.6c4.2,0,7.2,1,8.9,2.3c1.5,1,2.2,2.3,2.2,3.4c0,2.2-2.6,3.8-2.8,3.7 c-1.8-2.2-4.9-3.8-8.3-3.8c-3.4,0-5.4,1.4-5.4,3.6c0,2.7,2.8,3.1,6.6,3.9c5.6,1.2,10.5,3.6,10.5,9.4c0,6.2-4.6,9.8-12.7,9.8 c-4.8,0-8.2-1.2-10-2.8C58.1,37.6,57.5,36.4,57.5,35.2z"></path><linearGradient id="SVGID_2_" gradientUnits="userSpaceOnUse" x1="57.6225" y1="24.4674" x2="189.3088" y2="27.7928"><stop offset="0" style="stop-color:#B5A64C"></stop><stop offset="0.5" style="stop-color:#95A841"></stop><stop offset="1" style="stop-color:#9A8F29"></stop></linearGradient><path class="st26" d="M87.5,37.8V13.7c0-2.5,1.4-3.9,3.7-3.9h8.1c8.2,0,12.8,3.6,12.8,10.5c0,6.9-4.4,10.5-12.7,10.5h-4.7v7.1 c0,2-1.1,3.2-3.1,3.2h-1C88.6,41,87.5,39.9,87.5,37.8z M105.2,20.3c0-3.3-2.1-5-6-5h-4.6v10.1h4.7 C103.1,25.4,105.2,23.7,105.2,20.3z"></path><linearGradient id="SVGID_3_" gradientUnits="userSpaceOnUse" x1="57.6415" y1="23.7153" x2="189.3278" y2="27.0408"><stop offset="0" style="stop-color:#B5A64C"></stop><stop offset="0.5" style="stop-color:#95A841"></stop><stop offset="1" style="stop-color:#9A8F29"></stop></linearGradient><path class="st27" d="M117.5,12.8c0-2.2,1.1-3.2,3-3.2h1c2.1,0,3.1,1.1,3.1,3.2v25c0,2.1-1.1,3.2-3.1,3.2h-1c-2,0-3-1.1-3-3.2 V12.8z"></path><linearGradient id="SVGID_4_" gradientUnits="userSpaceOnUse" x1="57.6579" y1="23.0668" x2="189.3441" y2="26.3922"><stop offset="0" style="stop-color:#B5A64C"></stop><stop offset="0.5" style="stop-color:#95A841"></stop><stop offset="1" style="stop-color:#9A8F29"></stop></linearGradient><path class="st28" d="M146.8,9.1c4.1,0,7.1,1.2,9.1,2.6c1.9,1.4,2.8,3.2,2.8,4.5c0,3.1-4,3.8-4.1,3.6c-1.5-2.7-4.4-4.2-7.6-4.2 c-5.2,0-8.9,3.9-8.9,9.7c0,5.8,3.8,9.8,9,9.8c3.6,0,6.5-1.8,7.7-4.7c0.1-0.3,4.2,0.4,4.2,3.6c0,1.3-1,3.2-3,4.8s-5.1,2.8-9.4,2.8 c-9.4,0-15.9-6.7-15.9-16.2C130.8,15.9,137.3,9.1,146.8,9.1z"></path><linearGradient id="SVGID_5_" gradientUnits="userSpaceOnUse" x1="57.6768" y1="22.3173" x2="189.3631" y2="25.6427"><stop offset="0" style="stop-color:#B5A64C"></stop><stop offset="0.5" style="stop-color:#95A841"></stop><stop offset="1" style="stop-color:#9A8F29"></stop></linearGradient><path class="st29" d="M164.1,37V13.7c0-2.5,1.4-3.9,3.7-3.9h17.3c2.2,0,3.3,1,3.3,2.8v0.2c0,1.9-1.1,2.8-3.3,2.8h-13.9v6.6h10.2 c2.3,0,3.3,0.9,3.3,2.6v0.1c0,1.9-1,2.7-3.3,2.7h-10.2V35h14.2c2.2,0,3.2,0.8,3.2,2.6v0.2c0,2-1,2.9-3.2,2.9h-17.5 C165.5,40.8,164.1,39.5,164.1,37z"></path></g></g></svg>