<?xml version="1.0" encoding="utf-8"?>
<!-- Generator: Adobe Illustrator 24.2.0, SVG Export Plug-In . SVG Version: 6.00 Build 0)  -->
<svg version="1.1" id="Layer_1" xmlns="http://www.w3.org/2000/svg" xmlns:xlink="http://www.w3.org/1999/xlink" x="0px" y="0px"
	 viewBox="0 0 244.1 79.5" style="enable-background:new 0 0 244.1 79.5;" xml:space="preserve">
<style type="text/css">
	.st0{fill:#6CA53A;}
	.st1{fill:#C52026;}
	.st2{fill:#FFFFFF;}
	.st3{fill:#5B692C;}
	.st4{fill:#910200;}
	.st5{fill:#FFFFFF;stroke:#FFFFFF;stroke-width:0.3599;stroke-miterlimit:10;}
	.st6{fill:none;stroke:#B34137;stroke-width:2;stroke-linecap:round;stroke-miterlimit:10;}
	.st7{fill:#665939;}
	.st8{fill-rule:evenodd;clip-rule:evenodd;fill:#BC2822;}
	.st9{fill-rule:evenodd;clip-rule:evenodd;fill:#9B1105;}
	.st10{fill-rule:evenodd;clip-rule:evenodd;fill:#FFCB03;}
	.st11{fill-rule:evenodd;clip-rule:evenodd;fill:#FEBD0A;}
	.st12{fill-rule:evenodd;clip-rule:evenodd;fill:#BBBC32;}
	.st13{fill-rule:evenodd;clip-rule:evenodd;fill:#95A841;}
	.st14{fill:#FFCB03;}
	.st15{fill:#F29401;}
	.st16{fill:#AF8667;}
	.st17{fill:#E4D7C8;}
	.st18{fill:#D49D54;}
	.st19{fill:#935D55;}
	.st20{fill:#BC2822;}
	.st21{fill:#7B261C;}
	.st22{fill:#F57D0B;}
	.st23{fill:#B85828;}
	.st24{fill:#BBBC32;}
	.st25{fill:url(#SVGID_1_);}
	.st26{fill:url(#SVGID_2_);}
	.st27{fill:url(#SVGID_3_);}
	.st28{fill:url(#SVGID_4_);}
	.st29{fill:url(#SVGID_5_);}
	.st30{fill-rule:evenodd;clip-rule:evenodd;fill:#7B261C;}
	.st31{fill:url(#SVGID_8_);}
	.st32{fill:url(#SVGID_9_);}
	.st33{fill:url(#SVGID_10_);}
	.st34{fill:url(#SVGID_11_);}
	.st35{fill:url(#SVGID_12_);}
	.st36{fill:#401216;}
</style>
<g>
	<g>
		<path class="st14" d="M28.3,1.8c-3.4,0-6.1,2.7-6.1,6.1c0,3.4,2.7,6.1,6.1,6.1c3.4,0,6.1-2.7,6.1-6.1C34.4,4.5,31.7,1.8,28.3,1.8z
			"/>
		<path class="st14" d="M28.3,16.8c-3.4,0-6.1,2.7-6.1,6.1v19.9c0,3.3,2.7,6.1,6.1,6.1c3.4,0,6.1-2.7,6.1-6.1V22.9
			C34.4,19.5,31.7,16.8,28.3,16.8z"/>
		<path class="st15" d="M42.2,19.3c-2.4,0-4.3,1.9-4.3,4.3v13.9c0,2.3,1.9,4.3,4.3,4.3c2.3,0,4.3-1.9,4.3-4.3V23.6
			C46.5,21.3,44.6,19.3,42.2,19.3z"/>
		<path class="st16" d="M14.5,8.8c-2.4,0-4.3,1.9-4.3,4.3c0,2.4,1.9,4.3,4.3,4.3c2.4,0,4.3-1.9,4.3-4.3C18.7,10.8,16.8,8.8,14.5,8.8
			z"/>
		<path class="st16" d="M14.5,19.3c-2.3,0-4.3,1.9-4.3,4.3v13.9c0,2.3,1.9,4.3,4.3,4.3c2.3,0,4.3-1.9,4.3-4.3V23.6
			C18.7,21.3,16.8,19.3,14.5,19.3z"/>
		<path class="st15" d="M42.2,8.8c-2.4,0-4.3,1.9-4.3,4.3c0,2.4,1.9,4.3,4.3,4.3c2.3,0,4.3-1.9,4.3-4.3C46.5,10.8,44.6,8.8,42.2,8.8
			z"/>
		<path class="st16" d="M51,21.9c1,0,1.8-0.8,1.8-1.8c0-1-0.8-1.8-1.8-1.8c-1,0-1.8,0.8-1.8,1.8C49.2,21.1,50,21.9,51,21.9z"/>
		<path class="st17" d="M5.6,22.8c-1,0-1.8,0.8-1.8,1.8v6c0,1,0.8,1.8,1.8,1.8c1,0,1.8-0.8,1.8-1.8v-6C7.5,23.6,6.7,22.8,5.6,22.8z"
			/>
		<path class="st17" d="M5.6,18.3c-1,0-1.8,0.8-1.8,1.8c0,1,0.8,1.8,1.8,1.8c1,0,1.8-0.8,1.8-1.8C7.5,19.1,6.7,18.3,5.6,18.3z"/>
		<path class="st16" d="M51,22.8c-1,0-1.8,0.8-1.8,1.8v6c0,1,0.8,1.8,1.8,1.8c1,0,1.8-0.8,1.8-1.8v-6C52.9,23.6,52,22.8,51,22.8z"/>
	</g>
	<g>
		<path class="st18" d="M216.6,1.8c-3.4,0-6.1,2.7-6.1,6.1c0,3.4,2.7,6.1,6.1,6.1c3.4,0,6.1-2.7,6.1-6.1
			C222.7,4.5,219.9,1.8,216.6,1.8z"/>
		<path class="st18" d="M216.6,16.8c-3.4,0-6.1,2.7-6.1,6.1v19.9c0,3.3,2.7,6.1,6.1,6.1c3.4,0,6.1-2.7,6.1-6.1V22.9
			C222.7,19.5,219.9,16.8,216.6,16.8z"/>
		<path class="st19" d="M230.5,19.3c-2.4,0-4.3,1.9-4.3,4.3v13.9c0,2.3,1.9,4.3,4.3,4.3c2.3,0,4.3-1.9,4.3-4.3V23.6
			C234.7,21.3,232.8,19.3,230.5,19.3z"/>
		<path class="st20" d="M202.7,8.8c-2.4,0-4.3,1.9-4.3,4.3c0,2.4,1.9,4.3,4.3,4.3c2.4,0,4.3-1.9,4.3-4.3
			C207,10.8,205.1,8.8,202.7,8.8z"/>
		<path class="st20" d="M202.7,19.3c-2.3,0-4.3,1.9-4.3,4.3v13.9c0,2.3,1.9,4.3,4.3,4.3c2.3,0,4.3-1.9,4.3-4.3V23.6
			C207,21.3,205,19.3,202.7,19.3z"/>
		<path class="st19" d="M230.5,8.8c-2.4,0-4.3,1.9-4.3,4.3c0,2.4,1.9,4.3,4.3,4.3c2.3,0,4.3-1.9,4.3-4.3
			C234.7,10.8,232.8,8.8,230.5,8.8z"/>
		<path class="st21" d="M239.3,21.9c1,0,1.8-0.8,1.8-1.8c0-1-0.8-1.8-1.8-1.8c-1,0-1.8,0.8-1.8,1.8
			C237.4,21.1,238.3,21.9,239.3,21.9z"/>
		<path class="st22" d="M193.9,22.8c-1,0-1.8,0.8-1.8,1.8v6c0,1,0.8,1.8,1.8,1.8c1,0,1.8-0.8,1.8-1.8v-6
			C195.7,23.6,194.9,22.8,193.9,22.8z"/>
		<path class="st22" d="M193.9,18.3c-1,0-1.8,0.8-1.8,1.8c0,1,0.8,1.8,1.8,1.8c1,0,1.8-0.8,1.8-1.8
			C195.7,19.1,194.9,18.3,193.9,18.3z"/>
		<path class="st21" d="M239.3,22.8c-1,0-1.8,0.8-1.8,1.8v6c0,1,0.8,1.8,1.8,1.8c1,0,1.8-0.8,1.8-1.8v-6
			C241.1,23.6,240.3,22.8,239.3,22.8z"/>
	</g>
	<g>
		<linearGradient id="SVGID_1_" gradientUnits="userSpaceOnUse" x1="57.6089" y1="25.005" x2="189.2952" y2="28.3304">
			<stop  offset="0" style="stop-color:#B5A64C"/>
			<stop  offset="0.5" style="stop-color:#95A841"/>
			<stop  offset="1" style="stop-color:#9A8F29"/>
		</linearGradient>
		<path class="st25" d="M57.5,35.2c0-2,2.4-3.7,2.7-3.5c1.9,2.2,5.4,4.2,9.2,4.2c3.7,0,5.7-1.3,5.7-3.7c0-2.8-3.1-3.4-6.8-4.2
			c-4.9-1.1-10-2.9-10-9.3c0-5.8,4.6-9.6,12.1-9.6c4.2,0,7.2,1,8.9,2.3c1.5,1,2.2,2.3,2.2,3.4c0,2.2-2.6,3.8-2.8,3.7
			c-1.8-2.2-4.9-3.8-8.3-3.8c-3.4,0-5.4,1.4-5.4,3.6c0,2.7,2.8,3.1,6.6,3.9c5.6,1.2,10.5,3.6,10.5,9.4c0,6.2-4.6,9.8-12.7,9.8
			c-4.8,0-8.2-1.2-10-2.8C58.1,37.6,57.5,36.4,57.5,35.2z"/>
		<linearGradient id="SVGID_2_" gradientUnits="userSpaceOnUse" x1="57.6225" y1="24.4674" x2="189.3088" y2="27.7928">
			<stop  offset="0" style="stop-color:#B5A64C"/>
			<stop  offset="0.5" style="stop-color:#95A841"/>
			<stop  offset="1" style="stop-color:#9A8F29"/>
		</linearGradient>
		<path class="st26" d="M87.5,37.8V13.7c0-2.5,1.4-3.9,3.7-3.9h8.1c8.2,0,12.8,3.6,12.8,10.5c0,6.9-4.4,10.5-12.7,10.5h-4.7v7.1
			c0,2-1.1,3.2-3.1,3.2h-1C88.6,41,87.5,39.9,87.5,37.8z M105.2,20.3c0-3.3-2.1-5-6-5h-4.6v10.1h4.7
			C103.1,25.4,105.2,23.7,105.2,20.3z"/>
		<linearGradient id="SVGID_3_" gradientUnits="userSpaceOnUse" x1="57.6415" y1="23.7153" x2="189.3278" y2="27.0408">
			<stop  offset="0" style="stop-color:#B5A64C"/>
			<stop  offset="0.5" style="stop-color:#95A841"/>
			<stop  offset="1" style="stop-color:#9A8F29"/>
		</linearGradient>
		<path class="st27" d="M117.5,12.8c0-2.2,1.1-3.2,3-3.2h1c2.1,0,3.1,1.1,3.1,3.2v25c0,2.1-1.1,3.2-3.1,3.2h-1c-2,0-3-1.1-3-3.2
			V12.8z"/>
		<linearGradient id="SVGID_4_" gradientUnits="userSpaceOnUse" x1="57.6579" y1="23.0668" x2="189.3441" y2="26.3922">
			<stop  offset="0" style="stop-color:#B5A64C"/>
			<stop  offset="0.5" style="stop-color:#95A841"/>
			<stop  offset="1" style="stop-color:#9A8F29"/>
		</linearGradient>
		<path class="st28" d="M146.8,9.1c4.1,0,7.1,1.2,9.1,2.6c1.9,1.4,2.8,3.2,2.8,4.5c0,3.1-4,3.8-4.1,3.6c-1.5-2.7-4.4-4.2-7.6-4.2
			c-5.2,0-8.9,3.9-8.9,9.7c0,5.8,3.8,9.8,9,9.8c3.6,0,6.5-1.8,7.7-4.7c0.1-0.3,4.2,0.4,4.2,3.6c0,1.3-1,3.2-3,4.8s-5.1,2.8-9.4,2.8
			c-9.4,0-15.9-6.7-15.9-16.2C130.8,15.9,137.3,9.1,146.8,9.1z"/>
		<linearGradient id="SVGID_5_" gradientUnits="userSpaceOnUse" x1="57.6768" y1="22.3173" x2="189.3631" y2="25.6427">
			<stop  offset="0" style="stop-color:#B5A64C"/>
			<stop  offset="0.5" style="stop-color:#95A841"/>
			<stop  offset="1" style="stop-color:#9A8F29"/>
		</linearGradient>
		<path class="st29" d="M164.1,37V13.7c0-2.5,1.4-3.9,3.7-3.9h17.3c2.2,0,3.3,1,3.3,2.8v0.2c0,1.9-1.1,2.8-3.3,2.8h-13.9v6.6h10.2
			c2.3,0,3.3,0.9,3.3,2.6v0.1c0,1.9-1,2.7-3.3,2.7h-10.2V35h14.2c2.2,0,3.2,0.8,3.2,2.6v0.2c0,2-1,2.9-3.2,2.9h-17.5
			C165.5,40.8,164.1,39.5,164.1,37z"/>
	</g>
</g>
<g>
	<path class="st36" d="M14.6,54.8c0,0.1-0.1,0.1-0.1,0.1s-0.1,0-0.2,0c-0.1,0-0.1,0-0.2-0.1c-0.1-0.1-0.2-0.1-0.3-0.2
		c-0.1-0.1-0.3-0.2-0.5-0.2c-0.2-0.1-0.4-0.1-0.7-0.1c-0.3,0-0.5,0-0.7,0.1s-0.4,0.2-0.5,0.3S11.1,55,11,55.1
		c-0.1,0.2-0.1,0.3-0.1,0.5c0,0.2,0.1,0.4,0.2,0.6c0.1,0.2,0.3,0.3,0.5,0.4c0.2,0.1,0.4,0.2,0.7,0.3s0.5,0.2,0.8,0.3
		s0.5,0.2,0.8,0.3s0.5,0.2,0.7,0.4s0.3,0.4,0.5,0.6s0.2,0.5,0.2,0.9c0,0.4-0.1,0.7-0.2,1.1s-0.3,0.6-0.6,0.9
		c-0.2,0.2-0.5,0.4-0.9,0.6c-0.4,0.1-0.8,0.2-1.2,0.2c-0.6,0-1.1-0.1-1.5-0.3S9.8,61.4,9.5,61l0.3-0.6c0,0,0.1-0.1,0.1-0.1
		c0,0,0.1,0,0.2,0c0.1,0,0.2,0,0.3,0.1c0.1,0.1,0.2,0.2,0.4,0.3c0.2,0.1,0.4,0.2,0.6,0.3c0.2,0.1,0.5,0.1,0.8,0.1
		c0.3,0,0.5,0,0.7-0.1c0.2-0.1,0.4-0.2,0.5-0.3c0.2-0.1,0.3-0.3,0.3-0.5c0.1-0.2,0.1-0.4,0.1-0.6c0-0.3-0.1-0.5-0.2-0.6
		s-0.3-0.3-0.5-0.4c-0.2-0.1-0.4-0.2-0.7-0.3s-0.5-0.2-0.8-0.2c-0.3-0.1-0.5-0.2-0.8-0.3c-0.2-0.1-0.5-0.2-0.7-0.4
		c-0.2-0.2-0.3-0.4-0.5-0.6s-0.2-0.6-0.2-1c0-0.3,0.1-0.6,0.2-0.9s0.3-0.5,0.5-0.8s0.5-0.4,0.8-0.5s0.7-0.2,1.1-0.2
		c0.5,0,0.9,0.1,1.3,0.2c0.4,0.2,0.7,0.4,1,0.7L14.6,54.8z"/>
	<path class="st36" d="M18.8,55.9c0.4,0,0.8,0.1,1.2,0.2c0.4,0.1,0.7,0.4,0.9,0.6c0.2,0.3,0.4,0.6,0.6,1c0.1,0.4,0.2,0.8,0.2,1.3
		c0,0.5-0.1,0.9-0.2,1.3c-0.1,0.4-0.3,0.7-0.6,1c-0.2,0.3-0.6,0.5-0.9,0.6c-0.4,0.1-0.8,0.2-1.2,0.2c-0.4,0-0.8-0.1-1.2-0.2
		c-0.4-0.1-0.7-0.4-0.9-0.6c-0.3-0.3-0.4-0.6-0.6-1c-0.1-0.4-0.2-0.8-0.2-1.3c0-0.5,0.1-0.9,0.2-1.3c0.1-0.4,0.3-0.7,0.6-1
		c0.3-0.3,0.6-0.5,0.9-0.6C18,56,18.4,55.9,18.8,55.9z M18.8,61.3c0.6,0,1-0.2,1.3-0.6c0.3-0.4,0.4-1,0.4-1.7c0-0.7-0.1-1.3-0.4-1.7
		c-0.3-0.4-0.7-0.6-1.3-0.6c-0.3,0-0.6,0.1-0.8,0.2c-0.2,0.1-0.4,0.3-0.6,0.5c-0.1,0.2-0.3,0.4-0.3,0.7S17,58.7,17,59s0,0.7,0.1,1
		c0.1,0.3,0.2,0.5,0.3,0.7c0.2,0.2,0.3,0.3,0.6,0.4C18.3,61.3,18.5,61.3,18.8,61.3z"/>
	<path class="st36" d="M27.2,57.1c0,0-0.1,0.1-0.1,0.1c0,0-0.1,0-0.1,0c-0.1,0-0.1,0-0.2-0.1c-0.1-0.1-0.2-0.1-0.3-0.2
		c-0.1-0.1-0.2-0.1-0.4-0.2c-0.2-0.1-0.3-0.1-0.6-0.1c-0.3,0-0.6,0.1-0.8,0.2c-0.2,0.1-0.4,0.3-0.6,0.5s-0.3,0.4-0.3,0.7
		c-0.1,0.3-0.1,0.6-0.1,1c0,0.4,0,0.7,0.1,1c0.1,0.3,0.2,0.5,0.4,0.7c0.2,0.2,0.3,0.3,0.6,0.4c0.2,0.1,0.5,0.2,0.7,0.2
		c0.3,0,0.5,0,0.6-0.1c0.2-0.1,0.3-0.1,0.4-0.2c0.1-0.1,0.2-0.1,0.3-0.2c0.1-0.1,0.1-0.1,0.2-0.1c0.1,0,0.2,0,0.2,0.1l0.3,0.4
		c-0.3,0.3-0.6,0.6-1,0.7c-0.4,0.1-0.8,0.2-1.3,0.2c-0.4,0-0.7-0.1-1.1-0.2s-0.6-0.3-0.8-0.6c-0.2-0.3-0.4-0.6-0.6-1
		c-0.1-0.4-0.2-0.8-0.2-1.3c0-0.5,0.1-0.9,0.2-1.3s0.3-0.7,0.6-1s0.5-0.5,0.9-0.7c0.4-0.2,0.8-0.2,1.2-0.2c0.4,0,0.8,0.1,1.1,0.2
		c0.3,0.1,0.6,0.3,0.9,0.6L27.2,57.1z"/>
	<path class="st36" d="M30.1,54.1c0,0.1,0,0.2-0.1,0.3s-0.1,0.2-0.2,0.2s-0.2,0.1-0.2,0.2s-0.2,0.1-0.3,0.1c-0.1,0-0.2,0-0.3-0.1
		s-0.2-0.1-0.2-0.2c-0.1-0.1-0.1-0.2-0.2-0.2s-0.1-0.2-0.1-0.3c0-0.1,0-0.2,0.1-0.3s0.1-0.2,0.2-0.2c0.1-0.1,0.2-0.1,0.2-0.2
		s0.2-0.1,0.3-0.1c0.1,0,0.2,0,0.3,0.1s0.2,0.1,0.2,0.2c0.1,0.1,0.1,0.2,0.2,0.2S30.1,54,30.1,54.1z M29.8,56v6.1h-1.1V56H29.8z"/>
	<path class="st36" d="M36.2,62.1h-0.5c-0.1,0-0.2,0-0.3,0c-0.1,0-0.1-0.1-0.1-0.2l-0.1-0.6c-0.2,0.1-0.3,0.3-0.5,0.4
		c-0.2,0.1-0.3,0.2-0.5,0.3c-0.2,0.1-0.3,0.1-0.5,0.2c-0.2,0-0.4,0.1-0.6,0.1c-0.2,0-0.5,0-0.7-0.1s-0.4-0.2-0.5-0.3
		c-0.2-0.1-0.3-0.3-0.4-0.5s-0.1-0.4-0.1-0.7c0-0.2,0.1-0.5,0.2-0.7s0.3-0.4,0.6-0.6s0.7-0.3,1.2-0.4c0.5-0.1,1.1-0.2,1.7-0.2v-0.5
		c0-0.5-0.1-0.8-0.3-1.1s-0.5-0.4-0.9-0.4c-0.3,0-0.5,0-0.7,0.1c-0.2,0.1-0.3,0.1-0.5,0.2c-0.1,0.1-0.2,0.2-0.3,0.2
		c-0.1,0.1-0.2,0.1-0.3,0.1c-0.1,0-0.1,0-0.2-0.1c-0.1,0-0.1-0.1-0.1-0.1l-0.2-0.3c0.3-0.3,0.7-0.6,1.1-0.7c0.4-0.2,0.8-0.2,1.3-0.2
		c0.3,0,0.6,0.1,0.9,0.2c0.3,0.1,0.5,0.3,0.7,0.5c0.2,0.2,0.3,0.4,0.4,0.7s0.1,0.6,0.1,0.9V62.1z M33.4,61.4c0.2,0,0.4,0,0.5-0.1
		c0.2,0,0.3-0.1,0.4-0.2s0.3-0.2,0.4-0.3s0.2-0.2,0.4-0.3v-1.3c-0.5,0-0.9,0.1-1.3,0.1c-0.3,0.1-0.6,0.1-0.8,0.2s-0.4,0.2-0.5,0.4
		c-0.1,0.1-0.1,0.3-0.1,0.5c0,0.2,0,0.3,0.1,0.4c0.1,0.1,0.1,0.2,0.2,0.3s0.2,0.1,0.3,0.2C33.1,61.4,33.3,61.4,33.4,61.4z"/>
	<path class="st36" d="M39,53.2v8.8h-1.1v-8.8H39z"/>
	<path class="st36" d="M47.3,57.1c0,0-0.1,0.1-0.1,0.1c0,0-0.1,0-0.1,0c-0.1,0-0.1,0-0.2-0.1c-0.1-0.1-0.2-0.1-0.3-0.2
		c-0.1-0.1-0.2-0.1-0.4-0.2c-0.2-0.1-0.3-0.1-0.6-0.1c-0.3,0-0.6,0.1-0.8,0.2c-0.2,0.1-0.4,0.3-0.6,0.5c-0.2,0.2-0.3,0.4-0.3,0.7
		s-0.1,0.6-0.1,1c0,0.4,0,0.7,0.1,1c0.1,0.3,0.2,0.5,0.4,0.7c0.2,0.2,0.3,0.3,0.6,0.4c0.2,0.1,0.5,0.2,0.7,0.2c0.3,0,0.5,0,0.6-0.1
		c0.2-0.1,0.3-0.1,0.4-0.2c0.1-0.1,0.2-0.1,0.3-0.2c0.1-0.1,0.1-0.1,0.2-0.1c0.1,0,0.2,0,0.2,0.1l0.3,0.4c-0.3,0.3-0.6,0.6-1,0.7
		c-0.4,0.1-0.8,0.2-1.3,0.2c-0.4,0-0.7-0.1-1.1-0.2s-0.6-0.3-0.8-0.6c-0.2-0.3-0.4-0.6-0.6-1s-0.2-0.8-0.2-1.3
		c0-0.5,0.1-0.9,0.2-1.3s0.3-0.7,0.6-1c0.2-0.3,0.5-0.5,0.9-0.7c0.4-0.2,0.8-0.2,1.2-0.2c0.4,0,0.8,0.1,1.1,0.2
		c0.3,0.1,0.6,0.3,0.9,0.6L47.3,57.1z"/>
	<path class="st36" d="M51.3,55.9c0.4,0,0.8,0.1,1.2,0.2c0.4,0.1,0.7,0.4,0.9,0.6c0.2,0.3,0.4,0.6,0.6,1c0.1,0.4,0.2,0.8,0.2,1.3
		c0,0.5-0.1,0.9-0.2,1.3c-0.1,0.4-0.3,0.7-0.6,1c-0.2,0.3-0.6,0.5-0.9,0.6c-0.4,0.1-0.8,0.2-1.2,0.2c-0.4,0-0.8-0.1-1.2-0.2
		c-0.4-0.1-0.7-0.4-0.9-0.6c-0.3-0.3-0.4-0.6-0.6-1s-0.2-0.8-0.2-1.3c0-0.5,0.1-0.9,0.2-1.3s0.3-0.7,0.6-1c0.3-0.3,0.6-0.5,0.9-0.6
		C50.4,56,50.8,55.9,51.3,55.9z M51.3,61.3c0.6,0,1-0.2,1.3-0.6c0.3-0.4,0.4-1,0.4-1.7c0-0.7-0.1-1.3-0.4-1.7
		c-0.3-0.4-0.7-0.6-1.3-0.6c-0.3,0-0.6,0.1-0.8,0.2c-0.2,0.1-0.4,0.3-0.6,0.5c-0.1,0.2-0.3,0.4-0.3,0.7s-0.1,0.6-0.1,1s0,0.7,0.1,1
		c0.1,0.3,0.2,0.5,0.3,0.7c0.2,0.2,0.3,0.3,0.6,0.4C50.7,61.3,51,61.3,51.3,61.3z"/>
	<path class="st36" d="M55.5,62.1v-8.8h1.1v3.6c0.3-0.3,0.5-0.5,0.9-0.7c0.3-0.2,0.7-0.2,1.1-0.2c0.3,0,0.6,0.1,0.9,0.2
		c0.3,0.1,0.5,0.3,0.6,0.5s0.3,0.4,0.4,0.7c0.1,0.3,0.1,0.6,0.1,0.9v3.9h-1.1v-3.9c0-0.5-0.1-0.8-0.3-1.1c-0.2-0.3-0.5-0.4-1-0.4
		c-0.3,0-0.6,0.1-0.9,0.2c-0.3,0.2-0.5,0.4-0.8,0.6v4.5H55.5z"/>
	<path class="st36" d="M64.5,55.9c0.4,0,0.7,0.1,1,0.2c0.3,0.1,0.6,0.3,0.8,0.5c0.2,0.2,0.4,0.5,0.5,0.9c0.1,0.3,0.2,0.7,0.2,1.2
		c0,0.2,0,0.3-0.1,0.3c0,0.1-0.1,0.1-0.2,0.1h-4c0,0.4,0.1,0.7,0.2,1c0.1,0.3,0.2,0.5,0.4,0.7c0.2,0.2,0.4,0.3,0.6,0.4
		c0.2,0.1,0.5,0.1,0.8,0.1c0.3,0,0.5,0,0.7-0.1c0.2-0.1,0.4-0.1,0.5-0.2c0.1-0.1,0.3-0.1,0.4-0.2c0.1-0.1,0.2-0.1,0.2-0.1
		c0.1,0,0.2,0,0.2,0.1l0.3,0.4c-0.1,0.2-0.3,0.3-0.5,0.4c-0.2,0.1-0.4,0.2-0.6,0.3c-0.2,0.1-0.4,0.1-0.7,0.2s-0.4,0.1-0.7,0.1
		c-0.4,0-0.8-0.1-1.2-0.2c-0.4-0.1-0.7-0.3-0.9-0.6s-0.5-0.6-0.6-1c-0.1-0.4-0.2-0.9-0.2-1.4c0-0.4,0.1-0.8,0.2-1.2
		c0.1-0.4,0.3-0.7,0.6-1c0.2-0.3,0.5-0.5,0.9-0.6C63.7,56,64.1,55.9,64.5,55.9z M64.6,56.7c-0.5,0-0.9,0.1-1.2,0.4
		c-0.3,0.3-0.5,0.7-0.6,1.2h3.3c0-0.2,0-0.5-0.1-0.7c-0.1-0.2-0.2-0.4-0.3-0.5s-0.3-0.3-0.5-0.3C65,56.7,64.8,56.7,64.6,56.7z"/>
	<path class="st36" d="M71.9,57c0,0.1-0.1,0.1-0.2,0.1c-0.1,0-0.1,0-0.2-0.1s-0.2-0.1-0.3-0.1c-0.1-0.1-0.2-0.1-0.4-0.1
		s-0.3-0.1-0.5-0.1c-0.2,0-0.3,0-0.5,0.1c-0.1,0-0.3,0.1-0.4,0.2c-0.1,0.1-0.2,0.2-0.2,0.3c-0.1,0.1-0.1,0.2-0.1,0.3
		c0,0.2,0,0.3,0.1,0.4c0.1,0.1,0.2,0.2,0.4,0.3c0.1,0.1,0.3,0.1,0.5,0.2c0.2,0.1,0.4,0.1,0.6,0.2c0.2,0.1,0.4,0.1,0.6,0.2
		c0.2,0.1,0.4,0.2,0.5,0.3c0.1,0.1,0.3,0.3,0.4,0.4s0.1,0.4,0.1,0.6c0,0.3-0.1,0.5-0.2,0.8c-0.1,0.2-0.2,0.4-0.4,0.6
		c-0.2,0.2-0.4,0.3-0.7,0.4c-0.3,0.1-0.6,0.1-1,0.1c-0.4,0-0.8-0.1-1.2-0.2c-0.3-0.1-0.6-0.3-0.9-0.5l0.3-0.4c0-0.1,0.1-0.1,0.1-0.1
		s0.1,0,0.2,0c0.1,0,0.1,0,0.2,0.1s0.2,0.1,0.3,0.2c0.1,0.1,0.3,0.1,0.4,0.2s0.4,0.1,0.6,0.1c0.2,0,0.4,0,0.5-0.1
		c0.2-0.1,0.3-0.1,0.4-0.2c0.1-0.1,0.2-0.2,0.2-0.3c0-0.1,0.1-0.2,0.1-0.4c0-0.2,0-0.3-0.1-0.4s-0.2-0.2-0.4-0.3
		c-0.1-0.1-0.3-0.1-0.5-0.2c-0.2-0.1-0.4-0.1-0.6-0.2c-0.2-0.1-0.4-0.1-0.6-0.2c-0.2-0.1-0.4-0.2-0.5-0.3c-0.1-0.1-0.3-0.3-0.4-0.5
		c-0.1-0.2-0.1-0.4-0.1-0.7c0-0.2,0-0.5,0.1-0.7s0.2-0.4,0.4-0.6c0.2-0.2,0.4-0.3,0.7-0.4c0.3-0.1,0.6-0.1,0.9-0.1
		c0.4,0,0.8,0.1,1.1,0.2c0.3,0.1,0.6,0.3,0.8,0.5L71.9,57z"/>
	<path class="st36" d="M75.1,54.1c0,0.1,0,0.2-0.1,0.3s-0.1,0.2-0.2,0.2c-0.1,0.1-0.2,0.1-0.2,0.2c-0.1,0-0.2,0.1-0.3,0.1
		c-0.1,0-0.2,0-0.3-0.1c-0.1,0-0.2-0.1-0.2-0.2c-0.1-0.1-0.1-0.2-0.2-0.2s-0.1-0.2-0.1-0.3c0-0.1,0-0.2,0.1-0.3s0.1-0.2,0.2-0.2
		c0.1-0.1,0.1-0.1,0.2-0.2c0.1,0,0.2-0.1,0.3-0.1c0.1,0,0.2,0,0.3,0.1c0.1,0,0.2,0.1,0.2,0.2c0.1,0.1,0.1,0.2,0.2,0.2
		S75.1,54,75.1,54.1z M74.8,56v6.1h-1.1V56H74.8z"/>
	<path class="st36" d="M79.2,55.9c0.4,0,0.8,0.1,1.2,0.2c0.4,0.1,0.7,0.4,0.9,0.6c0.2,0.3,0.4,0.6,0.6,1s0.2,0.8,0.2,1.3
		c0,0.5-0.1,0.9-0.2,1.3s-0.3,0.7-0.6,1c-0.2,0.3-0.6,0.5-0.9,0.6c-0.4,0.1-0.8,0.2-1.2,0.2c-0.4,0-0.8-0.1-1.2-0.2
		c-0.4-0.1-0.7-0.4-0.9-0.6c-0.3-0.3-0.4-0.6-0.6-1c-0.1-0.4-0.2-0.8-0.2-1.3c0-0.5,0.1-0.9,0.2-1.3c0.1-0.4,0.3-0.7,0.6-1
		c0.3-0.3,0.6-0.5,0.9-0.6C78.3,56,78.7,55.9,79.2,55.9z M79.2,61.3c0.6,0,1-0.2,1.3-0.6c0.3-0.4,0.4-1,0.4-1.7
		c0-0.7-0.1-1.3-0.4-1.7c-0.3-0.4-0.7-0.6-1.3-0.6c-0.3,0-0.6,0.1-0.8,0.2c-0.2,0.1-0.4,0.3-0.6,0.5c-0.2,0.2-0.3,0.4-0.3,0.7
		s-0.1,0.6-0.1,1s0,0.7,0.1,1c0.1,0.3,0.2,0.5,0.3,0.7c0.1,0.2,0.3,0.3,0.6,0.4C78.6,61.3,78.9,61.3,79.2,61.3z"/>
	<path class="st36" d="M83.4,62.1V56H84c0.2,0,0.2,0.1,0.3,0.2l0.1,0.7c0.3-0.3,0.6-0.5,0.9-0.7c0.3-0.2,0.7-0.3,1.1-0.3
		c0.3,0,0.6,0.1,0.9,0.2c0.3,0.1,0.5,0.3,0.6,0.5s0.3,0.4,0.4,0.7c0.1,0.3,0.1,0.6,0.1,0.9v3.9h-1.1v-3.9c0-0.5-0.1-0.8-0.3-1.1
		c-0.2-0.3-0.5-0.4-1-0.4c-0.3,0-0.6,0.1-0.9,0.2c-0.3,0.2-0.5,0.4-0.8,0.6v4.5H83.4z"/>
	<path class="st36" d="M89.7,61.3c0-0.1,0-0.2,0.1-0.3s0.1-0.2,0.1-0.2c0.1-0.1,0.1-0.1,0.2-0.1s0.2-0.1,0.3-0.1
		c0.1,0,0.2,0,0.3,0.1c0.1,0,0.2,0.1,0.2,0.2c0.1,0.1,0.1,0.2,0.1,0.3c0,0.1,0,0.2,0,0.3c0,0.2,0,0.4-0.1,0.6
		c-0.1,0.2-0.1,0.4-0.2,0.6c-0.1,0.2-0.2,0.4-0.4,0.6c-0.1,0.2-0.3,0.3-0.5,0.5l-0.2-0.2c-0.1,0-0.1-0.1-0.1-0.2
		c0-0.1,0-0.1,0.1-0.2c0,0,0.1-0.1,0.2-0.2c0.1-0.1,0.1-0.2,0.2-0.3c0.1-0.1,0.1-0.2,0.2-0.3c0.1-0.1,0.1-0.2,0.1-0.4h-0.1
		c-0.1,0-0.2,0-0.3-0.1s-0.2-0.1-0.2-0.2c-0.1-0.1-0.1-0.1-0.1-0.2C89.8,61.5,89.7,61.4,89.7,61.3z"/>
	<path class="st36" d="M96.4,58.8v3.2h-1.2v-8.6h2.5c0.5,0,1,0.1,1.4,0.2c0.4,0.1,0.7,0.3,1,0.5c0.3,0.2,0.5,0.5,0.6,0.8
		s0.2,0.7,0.2,1.1c0,0.4-0.1,0.8-0.2,1.1c-0.1,0.3-0.3,0.6-0.6,0.9c-0.3,0.2-0.6,0.4-1,0.6c-0.4,0.1-0.9,0.2-1.4,0.2H96.4z
		 M96.4,57.9h1.4c0.3,0,0.6,0,0.9-0.1c0.3-0.1,0.5-0.2,0.6-0.4c0.2-0.2,0.3-0.3,0.4-0.6s0.1-0.5,0.1-0.7c0-0.5-0.2-1-0.5-1.3
		c-0.3-0.3-0.8-0.5-1.5-0.5h-1.4V57.9z"/>
	<path class="st36" d="M106.4,62.1h-0.5c-0.1,0-0.2,0-0.3,0c-0.1,0-0.1-0.1-0.1-0.2l-0.1-0.6c-0.2,0.1-0.3,0.3-0.5,0.4
		c-0.2,0.1-0.3,0.2-0.5,0.3c-0.2,0.1-0.3,0.1-0.5,0.2c-0.2,0-0.4,0.1-0.6,0.1c-0.2,0-0.5,0-0.7-0.1s-0.4-0.2-0.5-0.3
		s-0.3-0.3-0.4-0.5s-0.1-0.4-0.1-0.7c0-0.2,0.1-0.5,0.2-0.7s0.3-0.4,0.6-0.6s0.7-0.3,1.2-0.4c0.5-0.1,1.1-0.2,1.7-0.2v-0.5
		c0-0.5-0.1-0.8-0.3-1.1c-0.2-0.2-0.5-0.4-0.9-0.4c-0.3,0-0.5,0-0.7,0.1c-0.2,0.1-0.3,0.1-0.5,0.2s-0.2,0.2-0.3,0.2
		c-0.1,0.1-0.2,0.1-0.3,0.1c-0.1,0-0.1,0-0.2-0.1c-0.1,0-0.1-0.1-0.1-0.1l-0.2-0.3c0.3-0.3,0.7-0.6,1.1-0.7c0.4-0.2,0.8-0.2,1.3-0.2
		c0.3,0,0.6,0.1,0.9,0.2c0.3,0.1,0.5,0.3,0.7,0.5c0.2,0.2,0.3,0.4,0.4,0.7c0.1,0.3,0.1,0.6,0.1,0.9V62.1z M103.6,61.4
		c0.2,0,0.4,0,0.5-0.1s0.3-0.1,0.4-0.2c0.1-0.1,0.3-0.2,0.4-0.3s0.2-0.2,0.4-0.3v-1.3c-0.5,0-0.9,0.1-1.3,0.1
		c-0.3,0.1-0.6,0.1-0.8,0.2c-0.2,0.1-0.4,0.2-0.5,0.4c-0.1,0.1-0.1,0.3-0.1,0.5c0,0.2,0,0.3,0.1,0.4c0.1,0.1,0.1,0.2,0.2,0.3
		c0.1,0.1,0.2,0.1,0.3,0.2S103.5,61.4,103.6,61.4z"/>
	<path class="st36" d="M108,62.1V56h0.6c0.1,0,0.2,0,0.2,0.1s0.1,0.1,0.1,0.2l0.1,0.9c0.2-0.4,0.5-0.8,0.8-1
		c0.3-0.2,0.7-0.4,1.1-0.4c0.2,0,0.3,0,0.5,0.1c0.1,0,0.3,0.1,0.4,0.2l-0.1,0.8c0,0.1-0.1,0.1-0.2,0.1c-0.1,0-0.1,0-0.3-0.1
		c-0.1,0-0.3-0.1-0.5-0.1c-0.4,0-0.7,0.1-0.9,0.3c-0.2,0.2-0.5,0.5-0.6,0.9v3.9H108z"/>
	<path class="st36" d="M114.7,62.1c-0.5,0-0.8-0.1-1.1-0.4c-0.3-0.3-0.4-0.7-0.4-1.2v-3.7h-0.7c-0.1,0-0.1,0-0.2-0.1
		s-0.1-0.1-0.1-0.2v-0.4l1-0.1l0.2-1.9c0-0.1,0-0.1,0.1-0.1s0.1-0.1,0.2-0.1h0.5v2.1h1.7v0.8h-1.7v3.6c0,0.3,0.1,0.4,0.2,0.6
		s0.3,0.2,0.5,0.2c0.1,0,0.2,0,0.3,0s0.2-0.1,0.2-0.1c0.1,0,0.1-0.1,0.2-0.1c0,0,0.1,0,0.1,0c0.1,0,0.1,0,0.2,0.1l0.3,0.5
		c-0.2,0.2-0.4,0.3-0.7,0.4C115.3,62.1,115,62.1,114.7,62.1z"/>
	<path class="st36" d="M118.8,54.1c0,0.1,0,0.2-0.1,0.3s-0.1,0.2-0.2,0.2c-0.1,0.1-0.2,0.1-0.2,0.2c-0.1,0-0.2,0.1-0.3,0.1
		c-0.1,0-0.2,0-0.3-0.1c-0.1,0-0.2-0.1-0.2-0.2c-0.1-0.1-0.1-0.2-0.2-0.2s-0.1-0.2-0.1-0.3c0-0.1,0-0.2,0.1-0.3s0.1-0.2,0.2-0.2
		c0.1-0.1,0.1-0.1,0.2-0.2c0.1,0,0.2-0.1,0.3-0.1c0.1,0,0.2,0,0.3,0.1c0.1,0,0.2,0.1,0.2,0.2c0.1,0.1,0.1,0.2,0.2,0.2
		S118.8,54,118.8,54.1z M118.5,56v6.1h-1.1V56H118.5z"/>
	<path class="st36" d="M124.6,57.1c0,0-0.1,0.1-0.1,0.1c0,0-0.1,0-0.1,0c-0.1,0-0.1,0-0.2-0.1c-0.1-0.1-0.2-0.1-0.3-0.2
		c-0.1-0.1-0.2-0.1-0.4-0.2c-0.2-0.1-0.3-0.1-0.6-0.1c-0.3,0-0.6,0.1-0.8,0.2c-0.2,0.1-0.4,0.3-0.6,0.5s-0.3,0.4-0.3,0.7
		c-0.1,0.3-0.1,0.6-0.1,1c0,0.4,0,0.7,0.1,1c0.1,0.3,0.2,0.5,0.4,0.7c0.2,0.2,0.3,0.3,0.6,0.4c0.2,0.1,0.5,0.2,0.7,0.2
		c0.3,0,0.5,0,0.6-0.1c0.2-0.1,0.3-0.1,0.4-0.2c0.1-0.1,0.2-0.1,0.3-0.2c0.1-0.1,0.1-0.1,0.2-0.1c0.1,0,0.2,0,0.2,0.1l0.3,0.4
		c-0.3,0.3-0.6,0.6-1,0.7c-0.4,0.1-0.8,0.2-1.3,0.2c-0.4,0-0.7-0.1-1.1-0.2s-0.6-0.3-0.8-0.6c-0.2-0.3-0.4-0.6-0.6-1
		c-0.1-0.4-0.2-0.8-0.2-1.3c0-0.5,0.1-0.9,0.2-1.3s0.3-0.7,0.6-1s0.5-0.5,0.9-0.7c0.4-0.2,0.8-0.2,1.2-0.2c0.4,0,0.8,0.1,1.1,0.2
		c0.3,0.1,0.6,0.3,0.9,0.6L124.6,57.1z"/>
	<path class="st36" d="M127.4,54.1c0,0.1,0,0.2-0.1,0.3s-0.1,0.2-0.2,0.2c-0.1,0.1-0.2,0.1-0.2,0.2c-0.1,0-0.2,0.1-0.3,0.1
		c-0.1,0-0.2,0-0.3-0.1c-0.1,0-0.2-0.1-0.2-0.2c-0.1-0.1-0.1-0.2-0.2-0.2s-0.1-0.2-0.1-0.3c0-0.1,0-0.2,0.1-0.3s0.1-0.2,0.2-0.2
		c0.1-0.1,0.1-0.1,0.2-0.2c0.1,0,0.2-0.1,0.3-0.1c0.1,0,0.2,0,0.3,0.1c0.1,0,0.2,0.1,0.2,0.2c0.1,0.1,0.1,0.2,0.2,0.2
		S127.4,54,127.4,54.1z M127.2,56v6.1h-1.1V56H127.2z"/>
	<path class="st36" d="M129.1,64.1V56h0.6c0.2,0,0.2,0.1,0.3,0.2l0.1,0.7c0.3-0.3,0.6-0.6,0.9-0.8c0.3-0.2,0.7-0.3,1.2-0.3
		c0.3,0,0.7,0.1,0.9,0.2c0.3,0.1,0.5,0.3,0.7,0.6c0.2,0.3,0.4,0.6,0.5,1c0.1,0.4,0.2,0.8,0.2,1.3c0,0.4-0.1,0.9-0.2,1.3
		s-0.3,0.7-0.5,1c-0.2,0.3-0.5,0.5-0.8,0.7s-0.7,0.2-1.1,0.2c-0.4,0-0.7-0.1-1-0.2c-0.3-0.1-0.5-0.3-0.7-0.5v2.7H129.1z M131.8,56.7
		c-0.3,0-0.7,0.1-0.9,0.2c-0.3,0.2-0.5,0.4-0.7,0.7v2.9c0.2,0.3,0.4,0.5,0.6,0.6c0.2,0.1,0.5,0.2,0.8,0.2c0.6,0,1-0.2,1.3-0.6
		c0.3-0.4,0.5-1,0.5-1.7c0-0.4,0-0.7-0.1-1c-0.1-0.3-0.2-0.5-0.3-0.7s-0.3-0.3-0.5-0.4C132.3,56.8,132,56.7,131.8,56.7z"/>
	<path class="st36" d="M140.2,62.1h-0.5c-0.1,0-0.2,0-0.3,0c-0.1,0-0.1-0.1-0.1-0.2l-0.1-0.6c-0.2,0.1-0.3,0.3-0.5,0.4
		c-0.2,0.1-0.3,0.2-0.5,0.3c-0.2,0.1-0.3,0.1-0.5,0.2c-0.2,0-0.4,0.1-0.6,0.1c-0.2,0-0.5,0-0.7-0.1s-0.4-0.2-0.5-0.3
		c-0.2-0.1-0.3-0.3-0.4-0.5s-0.1-0.4-0.1-0.7c0-0.2,0.1-0.5,0.2-0.7s0.3-0.4,0.6-0.6s0.7-0.3,1.2-0.4c0.5-0.1,1.1-0.2,1.7-0.2v-0.5
		c0-0.5-0.1-0.8-0.3-1.1s-0.5-0.4-0.9-0.4c-0.3,0-0.5,0-0.7,0.1c-0.2,0.1-0.3,0.1-0.5,0.2c-0.1,0.1-0.2,0.2-0.3,0.2
		c-0.1,0.1-0.2,0.1-0.3,0.1c-0.1,0-0.1,0-0.2-0.1c-0.1,0-0.1-0.1-0.1-0.1l-0.2-0.3c0.3-0.3,0.7-0.6,1.1-0.7c0.4-0.2,0.8-0.2,1.3-0.2
		c0.3,0,0.6,0.1,0.9,0.2c0.3,0.1,0.5,0.3,0.7,0.5c0.2,0.2,0.3,0.4,0.4,0.7s0.1,0.6,0.1,0.9V62.1z M137.4,61.4c0.2,0,0.4,0,0.5-0.1
		c0.2,0,0.3-0.1,0.4-0.2s0.3-0.2,0.4-0.3s0.2-0.2,0.4-0.3v-1.3c-0.5,0-0.9,0.1-1.3,0.1c-0.3,0.1-0.6,0.1-0.8,0.2s-0.4,0.2-0.5,0.4
		c-0.1,0.1-0.1,0.3-0.1,0.5c0,0.2,0,0.3,0.1,0.4c0.1,0.1,0.1,0.2,0.2,0.3s0.2,0.1,0.3,0.2C137.1,61.4,137.3,61.4,137.4,61.4z"/>
	<path class="st36" d="M143.6,62.1c-0.5,0-0.8-0.1-1.1-0.4c-0.3-0.3-0.4-0.7-0.4-1.2v-3.7h-0.7c-0.1,0-0.1,0-0.2-0.1
		s-0.1-0.1-0.1-0.2v-0.4l1-0.1l0.2-1.9c0-0.1,0-0.1,0.1-0.1s0.1-0.1,0.2-0.1h0.5v2.1h1.7v0.8h-1.7v3.6c0,0.3,0.1,0.4,0.2,0.6
		s0.3,0.2,0.5,0.2c0.1,0,0.2,0,0.3,0s0.2-0.1,0.2-0.1c0.1,0,0.1-0.1,0.2-0.1c0,0,0.1,0,0.1,0c0.1,0,0.1,0,0.1,0.1l0.3,0.5
		c-0.2,0.2-0.4,0.3-0.7,0.4C144.2,62.1,143.9,62.1,143.6,62.1z"/>
	<path class="st36" d="M147.7,54.1c0,0.1,0,0.2-0.1,0.3s-0.1,0.2-0.2,0.2c-0.1,0.1-0.2,0.1-0.2,0.2c-0.1,0-0.2,0.1-0.3,0.1
		c-0.1,0-0.2,0-0.3-0.1c-0.1,0-0.2-0.1-0.2-0.2c-0.1-0.1-0.1-0.2-0.2-0.2s-0.1-0.2-0.1-0.3c0-0.1,0-0.2,0.1-0.3s0.1-0.2,0.2-0.2
		c0.1-0.1,0.1-0.1,0.2-0.2c0.1,0,0.2-0.1,0.3-0.1c0.1,0,0.2,0,0.3,0.1c0.1,0,0.2,0.1,0.2,0.2c0.1,0.1,0.1,0.2,0.2,0.2
		S147.7,54,147.7,54.1z M147.5,56v6.1h-1.1V56H147.5z"/>
	<path class="st36" d="M151.8,55.9c0.4,0,0.8,0.1,1.2,0.2c0.4,0.1,0.7,0.4,0.9,0.6c0.2,0.3,0.4,0.6,0.6,1s0.2,0.8,0.2,1.3
		c0,0.5-0.1,0.9-0.2,1.3s-0.3,0.7-0.6,1c-0.2,0.3-0.6,0.5-0.9,0.6c-0.4,0.1-0.8,0.2-1.2,0.2c-0.4,0-0.8-0.1-1.2-0.2
		c-0.4-0.1-0.7-0.4-0.9-0.6c-0.3-0.3-0.4-0.6-0.6-1c-0.1-0.4-0.2-0.8-0.2-1.3c0-0.5,0.1-0.9,0.2-1.3c0.1-0.4,0.3-0.7,0.6-1
		c0.3-0.3,0.6-0.5,0.9-0.6C151,56,151.4,55.9,151.8,55.9z M151.8,61.3c0.6,0,1-0.2,1.3-0.6c0.3-0.4,0.4-1,0.4-1.7
		c0-0.7-0.1-1.3-0.4-1.7c-0.3-0.4-0.7-0.6-1.3-0.6c-0.3,0-0.6,0.1-0.8,0.2c-0.2,0.1-0.4,0.3-0.6,0.5c-0.2,0.2-0.3,0.4-0.3,0.7
		s-0.1,0.6-0.1,1s0,0.7,0.1,1c0.1,0.3,0.2,0.5,0.3,0.7c0.1,0.2,0.3,0.3,0.6,0.4C151.2,61.3,151.5,61.3,151.8,61.3z"/>
	<path class="st36" d="M156,62.1V56h0.6c0.2,0,0.2,0.1,0.3,0.2l0.1,0.7c0.3-0.3,0.6-0.5,0.9-0.7c0.3-0.2,0.7-0.3,1.1-0.3
		c0.3,0,0.6,0.1,0.9,0.2c0.3,0.1,0.5,0.3,0.6,0.5s0.3,0.4,0.4,0.7c0.1,0.3,0.1,0.6,0.1,0.9v3.9H160v-3.9c0-0.5-0.1-0.8-0.3-1.1
		c-0.2-0.3-0.5-0.4-1-0.4c-0.3,0-0.6,0.1-0.9,0.2c-0.3,0.2-0.5,0.4-0.8,0.6v4.5H156z"/>
	<path class="st36" d="M162.4,61.3c0-0.1,0-0.2,0.1-0.3c0-0.1,0.1-0.2,0.1-0.2c0.1-0.1,0.1-0.1,0.2-0.1s0.2-0.1,0.3-0.1
		c0.1,0,0.2,0,0.3,0.1s0.2,0.1,0.2,0.2c0.1,0.1,0.1,0.2,0.1,0.3c0,0.1,0,0.2,0,0.3c0,0.2,0,0.4-0.1,0.6s-0.1,0.4-0.2,0.6
		c-0.1,0.2-0.2,0.4-0.4,0.6c-0.1,0.2-0.3,0.3-0.5,0.5l-0.2-0.2c-0.1,0-0.1-0.1-0.1-0.2c0-0.1,0-0.1,0.1-0.2c0,0,0.1-0.1,0.2-0.2
		c0.1-0.1,0.1-0.2,0.2-0.3c0.1-0.1,0.1-0.2,0.2-0.3s0.1-0.2,0.1-0.4h-0.1c-0.1,0-0.2,0-0.3-0.1s-0.2-0.1-0.2-0.2
		c-0.1-0.1-0.1-0.1-0.1-0.2C162.4,61.5,162.4,61.4,162.4,61.3z"/>
	<path class="st36" d="M172,62.1h-0.5c-0.1,0-0.2,0-0.3,0c-0.1,0-0.1-0.1-0.1-0.2l-0.1-0.6c-0.2,0.1-0.3,0.3-0.5,0.4
		c-0.2,0.1-0.3,0.2-0.5,0.3c-0.2,0.1-0.3,0.1-0.5,0.2c-0.2,0-0.4,0.1-0.6,0.1c-0.2,0-0.5,0-0.7-0.1s-0.4-0.2-0.5-0.3
		s-0.3-0.3-0.4-0.5s-0.1-0.4-0.1-0.7c0-0.2,0.1-0.5,0.2-0.7s0.3-0.4,0.6-0.6s0.7-0.3,1.2-0.4c0.5-0.1,1.1-0.2,1.7-0.2v-0.5
		c0-0.5-0.1-0.8-0.3-1.1c-0.2-0.2-0.5-0.4-0.9-0.4c-0.3,0-0.5,0-0.7,0.1c-0.2,0.1-0.3,0.1-0.5,0.2s-0.2,0.2-0.3,0.2
		c-0.1,0.1-0.2,0.1-0.3,0.1c-0.1,0-0.1,0-0.2-0.1c-0.1,0-0.1-0.1-0.1-0.1l-0.2-0.3c0.3-0.3,0.7-0.6,1.1-0.7c0.4-0.2,0.8-0.2,1.3-0.2
		c0.3,0,0.6,0.1,0.9,0.2c0.3,0.1,0.5,0.3,0.7,0.5c0.2,0.2,0.3,0.4,0.4,0.7c0.1,0.3,0.1,0.6,0.1,0.9V62.1z M169.2,61.4
		c0.2,0,0.4,0,0.5-0.1s0.3-0.1,0.4-0.2c0.1-0.1,0.3-0.2,0.4-0.3s0.2-0.2,0.4-0.3v-1.3c-0.5,0-0.9,0.1-1.3,0.1
		c-0.3,0.1-0.6,0.1-0.8,0.2c-0.2,0.1-0.4,0.2-0.5,0.4c-0.1,0.1-0.1,0.3-0.1,0.5c0,0.2,0,0.3,0.1,0.4c0.1,0.1,0.1,0.2,0.2,0.3
		c0.1,0.1,0.2,0.1,0.3,0.2S169.1,61.4,169.2,61.4z"/>
	<path class="st36" d="M173.6,62.1V56h0.6c0.2,0,0.2,0.1,0.3,0.2l0.1,0.7c0.3-0.3,0.6-0.5,0.9-0.7c0.3-0.2,0.7-0.3,1.1-0.3
		c0.3,0,0.6,0.1,0.9,0.2c0.3,0.1,0.5,0.3,0.6,0.5s0.3,0.4,0.4,0.7c0.1,0.3,0.1,0.6,0.1,0.9v3.9h-1.1v-3.9c0-0.5-0.1-0.8-0.3-1.1
		c-0.2-0.3-0.5-0.4-1-0.4c-0.3,0-0.6,0.1-0.9,0.2c-0.3,0.2-0.5,0.4-0.8,0.6v4.5H173.6z"/>
	<path class="st36" d="M184.6,62.1c-0.2,0-0.2-0.1-0.3-0.2l-0.1-0.7c-0.3,0.3-0.6,0.6-0.9,0.8c-0.3,0.2-0.7,0.3-1.1,0.3
		c-0.3,0-0.7-0.1-0.9-0.2c-0.3-0.1-0.5-0.3-0.7-0.6s-0.4-0.6-0.5-1c-0.1-0.4-0.2-0.8-0.2-1.3c0-0.4,0.1-0.9,0.2-1.3
		c0.1-0.4,0.3-0.7,0.5-1c0.2-0.3,0.5-0.5,0.8-0.7c0.3-0.2,0.7-0.2,1.1-0.2c0.4,0,0.7,0.1,1,0.2s0.5,0.3,0.7,0.5v-3.4h1.1v8.8H184.6z
		 M182.5,61.3c0.3,0,0.7-0.1,0.9-0.2c0.3-0.2,0.5-0.4,0.7-0.7v-2.9c-0.2-0.3-0.4-0.4-0.6-0.6c-0.2-0.1-0.5-0.2-0.8-0.2
		c-0.6,0-1,0.2-1.3,0.6c-0.3,0.4-0.5,1-0.5,1.7c0,0.4,0,0.7,0.1,1s0.2,0.5,0.3,0.7c0.1,0.2,0.3,0.3,0.5,0.4S182.3,61.3,182.5,61.3z"
		/>
	<path class="st36" d="M190.9,62.1h-1.2v-8.6h1.2V62.1z"/>
	<path class="st36" d="M193,62.1V56h0.6c0.2,0,0.2,0.1,0.3,0.2l0.1,0.7c0.3-0.3,0.6-0.5,0.9-0.7c0.3-0.2,0.7-0.3,1.1-0.3
		c0.3,0,0.6,0.1,0.9,0.2c0.3,0.1,0.5,0.3,0.6,0.5s0.3,0.4,0.4,0.7c0.1,0.3,0.1,0.6,0.1,0.9v3.9H197v-3.9c0-0.5-0.1-0.8-0.3-1.1
		c-0.2-0.3-0.5-0.4-1-0.4c-0.3,0-0.6,0.1-0.9,0.2c-0.3,0.2-0.5,0.4-0.8,0.6v4.5H193z"/>
	<path class="st36" d="M203.8,57.1c0,0-0.1,0.1-0.1,0.1c0,0-0.1,0-0.1,0c-0.1,0-0.1,0-0.2-0.1c-0.1-0.1-0.2-0.1-0.3-0.2
		c-0.1-0.1-0.2-0.1-0.4-0.2c-0.2-0.1-0.3-0.1-0.6-0.1c-0.3,0-0.6,0.1-0.8,0.2c-0.2,0.1-0.4,0.3-0.6,0.5s-0.3,0.4-0.3,0.7
		c-0.1,0.3-0.1,0.6-0.1,1c0,0.4,0,0.7,0.1,1c0.1,0.3,0.2,0.5,0.4,0.7c0.2,0.2,0.3,0.3,0.6,0.4c0.2,0.1,0.5,0.2,0.7,0.2
		c0.3,0,0.5,0,0.6-0.1c0.2-0.1,0.3-0.1,0.4-0.2c0.1-0.1,0.2-0.1,0.3-0.2c0.1-0.1,0.1-0.1,0.2-0.1c0.1,0,0.2,0,0.2,0.1l0.3,0.4
		c-0.3,0.3-0.6,0.6-1,0.7c-0.4,0.1-0.8,0.2-1.3,0.2c-0.4,0-0.7-0.1-1.1-0.2s-0.6-0.3-0.8-0.6c-0.2-0.3-0.4-0.6-0.6-1
		c-0.1-0.4-0.2-0.8-0.2-1.3c0-0.5,0.1-0.9,0.2-1.3s0.3-0.7,0.6-1s0.5-0.5,0.9-0.7c0.4-0.2,0.8-0.2,1.2-0.2c0.4,0,0.8,0.1,1.1,0.2
		c0.3,0.1,0.6,0.3,0.9,0.6L203.8,57.1z"/>
	<path class="st36" d="M206.5,53.2v8.8h-1.1v-8.8H206.5z"/>
	<path class="st36" d="M209.3,56v3.9c0,0.5,0.1,0.8,0.3,1.1c0.2,0.3,0.5,0.4,1,0.4c0.3,0,0.6-0.1,0.9-0.2c0.3-0.1,0.5-0.4,0.8-0.6
		V56h1.1v6.1h-0.6c-0.2,0-0.2-0.1-0.3-0.2l-0.1-0.7c-0.3,0.3-0.6,0.5-0.9,0.7s-0.7,0.3-1.1,0.3c-0.3,0-0.6-0.1-0.9-0.2
		c-0.3-0.1-0.5-0.3-0.6-0.5s-0.3-0.4-0.4-0.7s-0.1-0.6-0.1-0.9V56H209.3z"/>
	<path class="st36" d="M218.5,57c0,0.1-0.1,0.1-0.2,0.1c-0.1,0-0.1,0-0.2-0.1s-0.2-0.1-0.3-0.1c-0.1-0.1-0.2-0.1-0.4-0.1
		s-0.3-0.1-0.5-0.1c-0.2,0-0.3,0-0.5,0.1c-0.1,0-0.3,0.1-0.4,0.2c-0.1,0.1-0.2,0.2-0.2,0.3c-0.1,0.1-0.1,0.2-0.1,0.3
		c0,0.2,0,0.3,0.1,0.4c0.1,0.1,0.2,0.2,0.4,0.3c0.1,0.1,0.3,0.1,0.5,0.2c0.2,0.1,0.4,0.1,0.6,0.2c0.2,0.1,0.4,0.1,0.6,0.2
		c0.2,0.1,0.4,0.2,0.5,0.3c0.1,0.1,0.3,0.3,0.4,0.4s0.1,0.4,0.1,0.6c0,0.3-0.1,0.5-0.2,0.8c-0.1,0.2-0.2,0.4-0.4,0.6
		c-0.2,0.2-0.4,0.3-0.7,0.4c-0.3,0.1-0.6,0.1-1,0.1c-0.4,0-0.8-0.1-1.2-0.2c-0.3-0.1-0.6-0.3-0.9-0.5l0.3-0.4c0-0.1,0.1-0.1,0.1-0.1
		s0.1,0,0.2,0c0.1,0,0.1,0,0.2,0.1s0.2,0.1,0.3,0.2c0.1,0.1,0.3,0.1,0.4,0.2s0.4,0.1,0.6,0.1c0.2,0,0.4,0,0.5-0.1
		c0.2-0.1,0.3-0.1,0.4-0.2c0.1-0.1,0.2-0.2,0.2-0.3c0-0.1,0.1-0.2,0.1-0.4c0-0.2,0-0.3-0.1-0.4s-0.2-0.2-0.4-0.3
		c-0.1-0.1-0.3-0.1-0.5-0.2c-0.2-0.1-0.4-0.1-0.6-0.2c-0.2-0.1-0.4-0.1-0.6-0.2c-0.2-0.1-0.4-0.2-0.5-0.3c-0.1-0.1-0.3-0.3-0.4-0.5
		c-0.1-0.2-0.1-0.4-0.1-0.7c0-0.2,0-0.5,0.1-0.7s0.2-0.4,0.4-0.6c0.2-0.2,0.4-0.3,0.7-0.4c0.3-0.1,0.6-0.1,0.9-0.1
		c0.4,0,0.8,0.1,1.1,0.2c0.3,0.1,0.6,0.3,0.8,0.5L218.5,57z"/>
	<path class="st36" d="M221.7,54.1c0,0.1,0,0.2-0.1,0.3s-0.1,0.2-0.2,0.2c-0.1,0.1-0.2,0.1-0.2,0.2c-0.1,0-0.2,0.1-0.3,0.1
		c-0.1,0-0.2,0-0.3-0.1c-0.1,0-0.2-0.1-0.2-0.2c-0.1-0.1-0.1-0.2-0.2-0.2s-0.1-0.2-0.1-0.3c0-0.1,0-0.2,0.1-0.3s0.1-0.2,0.2-0.2
		c0.1-0.1,0.1-0.1,0.2-0.2c0.1,0,0.2-0.1,0.3-0.1c0.1,0,0.2,0,0.3,0.1c0.1,0,0.2,0.1,0.2,0.2c0.1,0.1,0.1,0.2,0.2,0.2
		S221.7,54,221.7,54.1z M221.4,56v6.1h-1.1V56H221.4z"/>
	<path class="st36" d="M225.8,55.9c0.4,0,0.8,0.1,1.2,0.2c0.4,0.1,0.7,0.4,0.9,0.6c0.2,0.3,0.4,0.6,0.6,1c0.1,0.4,0.2,0.8,0.2,1.3
		c0,0.5-0.1,0.9-0.2,1.3c-0.1,0.4-0.3,0.7-0.6,1c-0.2,0.3-0.6,0.5-0.9,0.6c-0.4,0.1-0.8,0.2-1.2,0.2c-0.4,0-0.8-0.1-1.2-0.2
		c-0.4-0.1-0.7-0.4-0.9-0.6c-0.3-0.3-0.4-0.6-0.6-1s-0.2-0.8-0.2-1.3c0-0.5,0.1-0.9,0.2-1.3s0.3-0.7,0.6-1c0.3-0.3,0.6-0.5,0.9-0.6
		C224.9,56,225.3,55.9,225.8,55.9z M225.8,61.3c0.6,0,1-0.2,1.3-0.6c0.3-0.4,0.4-1,0.4-1.7c0-0.7-0.1-1.3-0.4-1.7
		c-0.3-0.4-0.7-0.6-1.3-0.6c-0.3,0-0.6,0.1-0.8,0.2c-0.2,0.1-0.4,0.3-0.6,0.5c-0.1,0.2-0.3,0.4-0.3,0.7s-0.1,0.6-0.1,1s0,0.7,0.1,1
		c0.1,0.3,0.2,0.5,0.3,0.7c0.2,0.2,0.3,0.3,0.6,0.4C225.2,61.3,225.5,61.3,225.8,61.3z"/>
	<path class="st36" d="M230,62.1V56h0.6c0.2,0,0.2,0.1,0.3,0.2l0.1,0.7c0.3-0.3,0.6-0.5,0.9-0.7c0.3-0.2,0.7-0.3,1.1-0.3
		c0.3,0,0.6,0.1,0.9,0.2c0.3,0.1,0.5,0.3,0.6,0.5s0.3,0.4,0.4,0.7c0.1,0.3,0.1,0.6,0.1,0.9v3.9H234v-3.9c0-0.5-0.1-0.8-0.3-1.1
		c-0.2-0.3-0.5-0.4-1-0.4c-0.3,0-0.6,0.1-0.9,0.2c-0.3,0.2-0.5,0.4-0.8,0.6v4.5H230z"/>
	<path class="st36" d="M47.6,76.6c-0.5,0-0.8-0.1-1.1-0.4c-0.3-0.3-0.4-0.7-0.4-1.2v-3.7h-0.7c-0.1,0-0.1,0-0.2-0.1
		s-0.1-0.1-0.1-0.2v-0.4l1-0.1l0.2-1.9c0-0.1,0-0.1,0.1-0.1s0.1-0.1,0.2-0.1h0.5v2.1h1.7v0.8h-1.7v3.6c0,0.3,0.1,0.4,0.2,0.6
		s0.3,0.2,0.5,0.2c0.1,0,0.2,0,0.3,0s0.2-0.1,0.2-0.1c0.1,0,0.1-0.1,0.2-0.1c0,0,0.1,0,0.1,0c0.1,0,0.1,0,0.1,0.1L49,76
		c-0.2,0.2-0.4,0.3-0.7,0.4C48.1,76.5,47.9,76.6,47.6,76.6z"/>
	<path class="st36" d="M50.2,76.5v-8.8h1.1v3.6c0.3-0.3,0.5-0.5,0.9-0.7c0.3-0.2,0.7-0.2,1.1-0.2c0.3,0,0.6,0.1,0.9,0.2
		c0.3,0.1,0.5,0.3,0.6,0.5s0.3,0.4,0.4,0.7c0.1,0.3,0.1,0.6,0.1,0.9v3.9h-1.1v-3.9c0-0.5-0.1-0.8-0.3-1.1c-0.2-0.3-0.5-0.4-1-0.4
		c-0.3,0-0.6,0.1-0.9,0.2c-0.3,0.2-0.5,0.4-0.8,0.6v4.5H50.2z"/>
	<path class="st36" d="M56.9,76.5v-6.1h0.6c0.1,0,0.2,0,0.2,0.1s0.1,0.1,0.1,0.2l0.1,0.9c0.2-0.4,0.5-0.8,0.8-1
		c0.3-0.2,0.7-0.4,1.1-0.4c0.2,0,0.3,0,0.5,0.1c0.1,0,0.3,0.1,0.4,0.2l-0.1,0.8c0,0.1-0.1,0.1-0.2,0.1c-0.1,0-0.1,0-0.3-0.1
		c-0.1,0-0.3-0.1-0.5-0.1c-0.4,0-0.7,0.1-0.9,0.3c-0.2,0.2-0.5,0.5-0.6,0.9v3.9H56.9z"/>
	<path class="st36" d="M64.2,70.3c0.4,0,0.8,0.1,1.2,0.2c0.4,0.1,0.7,0.4,0.9,0.6c0.2,0.3,0.4,0.6,0.6,1c0.1,0.4,0.2,0.8,0.2,1.3
		c0,0.5-0.1,0.9-0.2,1.3c-0.1,0.4-0.3,0.7-0.6,1c-0.2,0.3-0.6,0.5-0.9,0.6c-0.4,0.1-0.8,0.2-1.2,0.2c-0.4,0-0.8-0.1-1.2-0.2
		c-0.4-0.1-0.7-0.4-0.9-0.6c-0.3-0.3-0.4-0.6-0.6-1s-0.2-0.8-0.2-1.3c0-0.5,0.1-0.9,0.2-1.3s0.3-0.7,0.6-1c0.3-0.3,0.6-0.5,0.9-0.6
		C63.3,70.4,63.7,70.3,64.2,70.3z M64.2,75.7c0.6,0,1-0.2,1.3-0.6c0.3-0.4,0.4-1,0.4-1.7c0-0.7-0.1-1.3-0.4-1.7
		c-0.3-0.4-0.7-0.6-1.3-0.6c-0.3,0-0.6,0.1-0.8,0.2c-0.2,0.1-0.4,0.3-0.6,0.5c-0.1,0.2-0.3,0.4-0.3,0.7s-0.1,0.6-0.1,1s0,0.7,0.1,1
		c0.1,0.3,0.2,0.5,0.3,0.7c0.2,0.2,0.3,0.3,0.6,0.4C63.6,75.7,63.9,75.7,64.2,75.7z"/>
	<path class="st36" d="M69.3,70.4v3.9c0,0.5,0.1,0.8,0.3,1.1c0.2,0.3,0.5,0.4,1,0.4c0.3,0,0.6-0.1,0.9-0.2c0.3-0.1,0.5-0.4,0.8-0.6
		v-4.5h1.1v6.1h-0.6c-0.2,0-0.2-0.1-0.3-0.2l-0.1-0.7c-0.3,0.3-0.6,0.5-0.9,0.7s-0.7,0.3-1.1,0.3c-0.3,0-0.6-0.1-0.9-0.2
		c-0.3-0.1-0.5-0.3-0.6-0.5s-0.3-0.4-0.4-0.7s-0.1-0.6-0.1-0.9v-3.9H69.3z"/>
	<path class="st36" d="M77.1,70.3c0.3,0,0.5,0,0.7,0.1c0.2,0.1,0.4,0.1,0.6,0.3h1.6V71c0,0.1-0.1,0.2-0.3,0.3l-0.7,0.1
		c0.1,0.3,0.2,0.5,0.2,0.9c0,0.3-0.1,0.6-0.2,0.8c-0.1,0.2-0.3,0.4-0.5,0.6S78.3,74,78,74.1c-0.3,0.1-0.6,0.1-0.9,0.1
		c-0.3,0-0.6,0-0.8-0.1c-0.1,0.1-0.2,0.2-0.3,0.3c-0.1,0.1-0.1,0.2-0.1,0.3c0,0.1,0.1,0.3,0.2,0.3c0.1,0.1,0.3,0.1,0.5,0.2
		c0.2,0,0.4,0.1,0.7,0.1s0.5,0,0.7,0s0.5,0,0.7,0.1s0.5,0.1,0.7,0.2c0.2,0.1,0.3,0.2,0.5,0.4c0.1,0.2,0.2,0.4,0.2,0.7
		c0,0.3-0.1,0.5-0.2,0.8s-0.3,0.5-0.6,0.7c-0.2,0.2-0.5,0.3-0.9,0.5c-0.4,0.1-0.8,0.2-1.2,0.2c-0.4,0-0.8,0-1.2-0.1
		s-0.6-0.2-0.8-0.4c-0.2-0.1-0.4-0.3-0.5-0.5c-0.1-0.2-0.2-0.4-0.2-0.6c0-0.3,0.1-0.6,0.3-0.8c0.2-0.2,0.5-0.4,0.8-0.5
		c-0.2-0.1-0.3-0.2-0.4-0.3C75,75.3,75,75.1,75,74.9c0-0.1,0-0.2,0-0.3c0-0.1,0.1-0.2,0.1-0.3c0.1-0.1,0.1-0.2,0.2-0.3
		c0.1-0.1,0.2-0.2,0.3-0.2c-0.3-0.2-0.5-0.4-0.7-0.7s-0.3-0.6-0.3-1c0-0.3,0.1-0.6,0.2-0.8c0.1-0.2,0.3-0.4,0.5-0.6
		c0.2-0.2,0.4-0.3,0.7-0.4C76.5,70.3,76.8,70.3,77.1,70.3z M79,76.8c0-0.2,0-0.3-0.1-0.4s-0.2-0.2-0.3-0.2c-0.1,0-0.3-0.1-0.5-0.1
		c-0.2,0-0.4,0-0.6-0.1s-0.4,0-0.6,0c-0.2,0-0.4,0-0.6-0.1c-0.2,0.1-0.4,0.2-0.6,0.4c-0.1,0.2-0.2,0.3-0.2,0.6c0,0.1,0,0.3,0.1,0.4
		s0.2,0.2,0.3,0.3c0.1,0.1,0.3,0.2,0.5,0.2c0.2,0,0.5,0.1,0.8,0.1c0.3,0,0.5,0,0.8-0.1c0.2-0.1,0.4-0.1,0.6-0.2
		c0.2-0.1,0.3-0.2,0.4-0.3C79,77.1,79,76.9,79,76.8z M77.1,73.5c0.2,0,0.4,0,0.6-0.1c0.2-0.1,0.3-0.1,0.4-0.3
		c0.1-0.1,0.2-0.2,0.3-0.4c0.1-0.1,0.1-0.3,0.1-0.5c0-0.4-0.1-0.7-0.3-0.9c-0.2-0.2-0.6-0.3-1-0.3c-0.4,0-0.8,0.1-1,0.3
		c-0.2,0.2-0.3,0.5-0.3,0.9c0,0.2,0,0.3,0.1,0.5c0.1,0.2,0.1,0.3,0.3,0.4c0.1,0.1,0.2,0.2,0.4,0.3C76.7,73.5,76.9,73.5,77.1,73.5z"
		/>
	<path class="st36" d="M81.2,76.5v-8.8h1.1v3.6c0.3-0.3,0.5-0.5,0.9-0.7c0.3-0.2,0.7-0.2,1.1-0.2c0.3,0,0.6,0.1,0.9,0.2
		c0.3,0.1,0.5,0.3,0.6,0.5s0.3,0.4,0.4,0.7c0.1,0.3,0.1,0.6,0.1,0.9v3.9h-1.1v-3.9c0-0.5-0.1-0.8-0.3-1.1c-0.2-0.3-0.5-0.4-1-0.4
		c-0.3,0-0.6,0.1-0.9,0.2c-0.3,0.2-0.5,0.4-0.8,0.6v4.5H81.2z"/>
	<path class="st36" d="M96.4,74.7c0.1,0,0.1,0,0.2,0.1l0.5,0.5c-0.4,0.4-0.8,0.7-1.3,1c-0.5,0.2-1.1,0.3-1.8,0.3
		c-0.6,0-1.2-0.1-1.7-0.3s-0.9-0.5-1.3-0.9c-0.4-0.4-0.6-0.8-0.8-1.4c-0.2-0.5-0.3-1.1-0.3-1.8c0-0.6,0.1-1.2,0.3-1.8s0.5-1,0.9-1.4
		c0.4-0.4,0.8-0.7,1.4-0.9s1.1-0.3,1.8-0.3c0.6,0,1.2,0.1,1.6,0.3c0.5,0.2,0.9,0.5,1.2,0.8l-0.4,0.5c0,0-0.1,0.1-0.1,0.1
		c0,0-0.1,0-0.2,0c-0.1,0-0.1,0-0.2-0.1c-0.1,0-0.1-0.1-0.2-0.1s-0.2-0.1-0.3-0.2c-0.1-0.1-0.2-0.1-0.4-0.2
		c-0.1-0.1-0.3-0.1-0.5-0.1c-0.2,0-0.4-0.1-0.7-0.1c-0.5,0-0.9,0.1-1.3,0.2s-0.7,0.4-1,0.7c-0.3,0.3-0.5,0.6-0.6,1.1
		c-0.2,0.4-0.2,0.9-0.2,1.4c0,0.5,0.1,1,0.2,1.4c0.2,0.4,0.4,0.8,0.6,1.1c0.3,0.3,0.6,0.5,0.9,0.7c0.4,0.2,0.8,0.2,1.2,0.2
		c0.3,0,0.5,0,0.7,0s0.4-0.1,0.6-0.1c0.2-0.1,0.3-0.1,0.5-0.2c0.1-0.1,0.3-0.2,0.5-0.4C96.3,74.7,96.3,74.7,96.4,74.7z"/>
	<path class="st36" d="M99.3,70.4v3.9c0,0.5,0.1,0.8,0.3,1.1c0.2,0.3,0.5,0.4,1,0.4c0.3,0,0.6-0.1,0.9-0.2c0.3-0.1,0.5-0.4,0.8-0.6
		v-4.5h1.1v6.1h-0.6c-0.2,0-0.2-0.1-0.3-0.2l-0.1-0.7c-0.3,0.3-0.6,0.5-0.9,0.7s-0.7,0.3-1.1,0.3c-0.3,0-0.6-0.1-0.9-0.2
		c-0.3-0.1-0.5-0.3-0.6-0.5s-0.3-0.4-0.4-0.7s-0.1-0.6-0.1-0.9v-3.9H99.3z"/>
	<path class="st36" d="M106.3,67.6v8.8h-1.1v-8.8H106.3z"/>
	<path class="st36" d="M110,76.6c-0.5,0-0.8-0.1-1.1-0.4c-0.3-0.3-0.4-0.7-0.4-1.2v-3.7h-0.7c-0.1,0-0.1,0-0.2-0.1s-0.1-0.1-0.1-0.2
		v-0.4l1-0.1l0.2-1.9c0-0.1,0-0.1,0.1-0.1s0.1-0.1,0.2-0.1h0.5v2.1h1.7v0.8h-1.7v3.6c0,0.3,0.1,0.4,0.2,0.6s0.3,0.2,0.5,0.2
		c0.1,0,0.2,0,0.3,0s0.2-0.1,0.2-0.1c0.1,0,0.1-0.1,0.2-0.1c0,0,0.1,0,0.1,0c0.1,0,0.1,0,0.2,0.1l0.3,0.5c-0.2,0.2-0.4,0.3-0.7,0.4
		C110.5,76.5,110.3,76.6,110,76.6z"/>
	<path class="st36" d="M113.5,70.4v3.9c0,0.5,0.1,0.8,0.3,1.1c0.2,0.3,0.5,0.4,1,0.4c0.3,0,0.6-0.1,0.9-0.2c0.3-0.1,0.5-0.4,0.8-0.6
		v-4.5h1.1v6.1h-0.6c-0.2,0-0.2-0.1-0.3-0.2l-0.1-0.7c-0.3,0.3-0.6,0.5-0.9,0.7s-0.7,0.3-1.1,0.3c-0.3,0-0.6-0.1-0.9-0.2
		c-0.3-0.1-0.5-0.3-0.6-0.5s-0.3-0.4-0.4-0.7s-0.1-0.6-0.1-0.9v-3.9H113.5z"/>
	<path class="st36" d="M119.3,76.5v-6.1h0.6c0.1,0,0.2,0,0.2,0.1s0.1,0.1,0.1,0.2l0.1,0.9c0.2-0.4,0.5-0.8,0.8-1
		c0.3-0.2,0.7-0.4,1.1-0.4c0.2,0,0.3,0,0.5,0.1c0.1,0,0.3,0.1,0.4,0.2l-0.1,0.8c0,0.1-0.1,0.1-0.2,0.1c-0.1,0-0.1,0-0.3-0.1
		c-0.1,0-0.3-0.1-0.5-0.1c-0.4,0-0.7,0.1-0.9,0.3c-0.2,0.2-0.5,0.5-0.6,0.9v3.9H119.3z"/>
	<path class="st36" d="M128.4,76.5h-0.5c-0.1,0-0.2,0-0.3,0c-0.1,0-0.1-0.1-0.1-0.2l-0.1-0.6c-0.2,0.1-0.3,0.3-0.5,0.4
		c-0.2,0.1-0.3,0.2-0.5,0.3c-0.2,0.1-0.3,0.1-0.5,0.2c-0.2,0-0.4,0.1-0.6,0.1c-0.2,0-0.5,0-0.7-0.1s-0.4-0.2-0.5-0.3
		s-0.3-0.3-0.4-0.5s-0.1-0.4-0.1-0.7c0-0.2,0.1-0.5,0.2-0.7s0.3-0.4,0.6-0.6s0.7-0.3,1.2-0.4c0.5-0.1,1.1-0.2,1.7-0.2v-0.5
		c0-0.5-0.1-0.8-0.3-1.1c-0.2-0.2-0.5-0.4-0.9-0.4c-0.3,0-0.5,0-0.7,0.1c-0.2,0.1-0.3,0.1-0.5,0.2s-0.2,0.2-0.3,0.2
		c-0.1,0.1-0.2,0.1-0.3,0.1c-0.1,0-0.1,0-0.2-0.1c-0.1,0-0.1-0.1-0.1-0.1l-0.2-0.3c0.3-0.3,0.7-0.6,1.1-0.7c0.4-0.2,0.8-0.2,1.3-0.2
		c0.3,0,0.6,0.1,0.9,0.2c0.3,0.1,0.5,0.3,0.7,0.5c0.2,0.2,0.3,0.4,0.4,0.7c0.1,0.3,0.1,0.6,0.1,0.9V76.5z M125.6,75.8
		c0.2,0,0.4,0,0.5-0.1s0.3-0.1,0.4-0.2c0.1-0.1,0.3-0.2,0.4-0.3s0.2-0.2,0.4-0.3v-1.3c-0.5,0-0.9,0.1-1.3,0.1
		c-0.3,0.1-0.6,0.1-0.8,0.2c-0.2,0.1-0.4,0.2-0.5,0.4c-0.1,0.1-0.1,0.3-0.1,0.5c0,0.2,0,0.3,0.1,0.4c0.1,0.1,0.1,0.2,0.2,0.3
		c0.1,0.1,0.2,0.1,0.3,0.2S125.5,75.8,125.6,75.8z"/>
	<path class="st36" d="M131.2,67.6v8.8h-1.1v-8.8H131.2z"/>
	<path class="st36" d="M140.8,67.9v0.9h-4.1v2.9h3.3v0.9h-3.3v2.9h4.1v0.9h-5.3v-8.6H140.8z"/>
	<path class="st36" d="M142.3,76.5v-6.1h0.6c0.2,0,0.2,0.1,0.3,0.2l0.1,0.7c0.3-0.3,0.6-0.5,0.9-0.7c0.3-0.2,0.7-0.3,1.1-0.3
		c0.3,0,0.6,0.1,0.9,0.2c0.3,0.1,0.5,0.3,0.6,0.5s0.3,0.4,0.4,0.7c0.1,0.3,0.1,0.6,0.1,0.9v3.9h-1.1v-3.9c0-0.5-0.1-0.8-0.3-1.1
		c-0.2-0.3-0.5-0.4-1-0.4c-0.3,0-0.6,0.1-0.9,0.2c-0.3,0.2-0.5,0.4-0.8,0.6v4.5H142.3z"/>
	<path class="st36" d="M151.1,70.3c0.3,0,0.5,0,0.7,0.1c0.2,0.1,0.4,0.1,0.6,0.3h1.7V71c0,0.1-0.1,0.2-0.3,0.3l-0.7,0.1
		c0.1,0.3,0.2,0.5,0.2,0.9c0,0.3-0.1,0.6-0.2,0.8s-0.3,0.4-0.5,0.6c-0.2,0.2-0.4,0.3-0.7,0.4c-0.3,0.1-0.6,0.1-0.9,0.1
		c-0.3,0-0.6,0-0.8-0.1c-0.1,0.1-0.2,0.2-0.3,0.3c-0.1,0.1-0.1,0.2-0.1,0.3c0,0.1,0.1,0.3,0.2,0.3s0.3,0.1,0.5,0.2
		c0.2,0,0.4,0.1,0.7,0.1c0.2,0,0.5,0,0.7,0c0.3,0,0.5,0,0.7,0.1c0.2,0,0.5,0.1,0.7,0.2c0.2,0.1,0.3,0.2,0.5,0.4
		c0.1,0.2,0.2,0.4,0.2,0.7c0,0.3-0.1,0.5-0.2,0.8s-0.3,0.5-0.6,0.7c-0.2,0.2-0.5,0.3-0.9,0.5c-0.4,0.1-0.8,0.2-1.2,0.2
		c-0.4,0-0.8,0-1.2-0.1s-0.6-0.2-0.8-0.4c-0.2-0.1-0.4-0.3-0.5-0.5c-0.1-0.2-0.2-0.4-0.2-0.6c0-0.3,0.1-0.6,0.3-0.8
		c0.2-0.2,0.5-0.4,0.8-0.5c-0.2-0.1-0.3-0.2-0.4-0.3c-0.1-0.1-0.2-0.3-0.2-0.5c0-0.1,0-0.2,0-0.3c0-0.1,0.1-0.2,0.1-0.3
		c0.1-0.1,0.1-0.2,0.2-0.3s0.2-0.2,0.3-0.2c-0.3-0.2-0.5-0.4-0.7-0.7s-0.3-0.6-0.3-1c0-0.3,0.1-0.6,0.2-0.8s0.3-0.4,0.5-0.6
		c0.2-0.2,0.4-0.3,0.7-0.4S150.7,70.3,151.1,70.3z M153,76.8c0-0.2,0-0.3-0.1-0.4s-0.2-0.2-0.3-0.2c-0.1,0-0.3-0.1-0.5-0.1
		c-0.2,0-0.4,0-0.6-0.1s-0.4,0-0.6,0c-0.2,0-0.4,0-0.6-0.1c-0.2,0.1-0.4,0.2-0.6,0.4c-0.1,0.2-0.2,0.3-0.2,0.6c0,0.1,0,0.3,0.1,0.4
		c0.1,0.1,0.2,0.2,0.3,0.3c0.1,0.1,0.3,0.2,0.5,0.2s0.5,0.1,0.8,0.1c0.3,0,0.5,0,0.8-0.1c0.2-0.1,0.4-0.1,0.6-0.2
		c0.2-0.1,0.3-0.2,0.4-0.3C152.9,77.1,153,76.9,153,76.8z M151.1,73.5c0.2,0,0.4,0,0.6-0.1c0.2-0.1,0.3-0.1,0.4-0.3
		c0.1-0.1,0.2-0.2,0.3-0.4c0.1-0.1,0.1-0.3,0.1-0.5c0-0.4-0.1-0.7-0.3-0.9s-0.6-0.3-1-0.3c-0.4,0-0.8,0.1-1,0.3
		c-0.2,0.2-0.3,0.5-0.3,0.9c0,0.2,0,0.3,0.1,0.5c0.1,0.2,0.1,0.3,0.3,0.4c0.1,0.1,0.2,0.2,0.4,0.3C150.7,73.5,150.8,73.5,151.1,73.5
		z"/>
	<path class="st36" d="M159.6,76.5h-0.5c-0.1,0-0.2,0-0.3,0c-0.1,0-0.1-0.1-0.1-0.2l-0.1-0.6c-0.2,0.1-0.3,0.3-0.5,0.4
		c-0.2,0.1-0.3,0.2-0.5,0.3c-0.2,0.1-0.3,0.1-0.5,0.2c-0.2,0-0.4,0.1-0.6,0.1c-0.2,0-0.5,0-0.7-0.1s-0.4-0.2-0.5-0.3
		c-0.2-0.1-0.3-0.3-0.4-0.5s-0.1-0.4-0.1-0.7c0-0.2,0.1-0.5,0.2-0.7s0.3-0.4,0.6-0.6s0.7-0.3,1.2-0.4c0.5-0.1,1.1-0.2,1.7-0.2v-0.5
		c0-0.5-0.1-0.8-0.3-1.1s-0.5-0.4-0.9-0.4c-0.3,0-0.5,0-0.7,0.1c-0.2,0.1-0.3,0.1-0.5,0.2c-0.1,0.1-0.2,0.2-0.3,0.2
		c-0.1,0.1-0.2,0.1-0.3,0.1c-0.1,0-0.1,0-0.2-0.1c-0.1,0-0.1-0.1-0.1-0.1l-0.2-0.3c0.3-0.3,0.7-0.6,1.1-0.7c0.4-0.2,0.8-0.2,1.3-0.2
		c0.3,0,0.6,0.1,0.9,0.2c0.3,0.1,0.5,0.3,0.7,0.5c0.2,0.2,0.3,0.4,0.4,0.7s0.1,0.6,0.1,0.9V76.5z M156.8,75.8c0.2,0,0.4,0,0.5-0.1
		c0.2,0,0.3-0.1,0.4-0.2s0.3-0.2,0.4-0.3s0.2-0.2,0.4-0.3v-1.3c-0.5,0-0.9,0.1-1.3,0.1c-0.3,0.1-0.6,0.1-0.8,0.2s-0.4,0.2-0.5,0.4
		c-0.1,0.1-0.1,0.3-0.1,0.5c0,0.2,0,0.3,0.1,0.4c0.1,0.1,0.1,0.2,0.2,0.3s0.2,0.1,0.3,0.2C156.6,75.8,156.7,75.8,156.8,75.8z"/>
	<path class="st36" d="M163.3,70.3c0.3,0,0.5,0,0.7,0.1c0.2,0.1,0.4,0.1,0.6,0.3h1.6V71c0,0.1-0.1,0.2-0.3,0.3l-0.7,0.1
		c0.1,0.3,0.2,0.5,0.2,0.9c0,0.3-0.1,0.6-0.2,0.8c-0.1,0.2-0.3,0.4-0.5,0.6s-0.4,0.3-0.7,0.4c-0.3,0.1-0.6,0.1-0.9,0.1
		c-0.3,0-0.6,0-0.8-0.1c-0.1,0.1-0.2,0.2-0.3,0.3c-0.1,0.1-0.1,0.2-0.1,0.3c0,0.1,0.1,0.3,0.2,0.3c0.1,0.1,0.3,0.1,0.5,0.2
		c0.2,0,0.4,0.1,0.7,0.1s0.5,0,0.7,0s0.5,0,0.7,0.1s0.5,0.1,0.7,0.2c0.2,0.1,0.3,0.2,0.5,0.4c0.1,0.2,0.2,0.4,0.2,0.7
		c0,0.3-0.1,0.5-0.2,0.8s-0.3,0.5-0.6,0.7c-0.2,0.2-0.5,0.3-0.9,0.5c-0.4,0.1-0.8,0.2-1.2,0.2c-0.4,0-0.8,0-1.2-0.1
		s-0.6-0.2-0.8-0.4c-0.2-0.1-0.4-0.3-0.5-0.5c-0.1-0.2-0.2-0.4-0.2-0.6c0-0.3,0.1-0.6,0.3-0.8c0.2-0.2,0.5-0.4,0.8-0.5
		c-0.2-0.1-0.3-0.2-0.4-0.3c-0.1-0.1-0.2-0.3-0.2-0.5c0-0.1,0-0.2,0-0.3c0-0.1,0.1-0.2,0.1-0.3c0.1-0.1,0.1-0.2,0.2-0.3
		c0.1-0.1,0.2-0.2,0.3-0.2c-0.3-0.2-0.5-0.4-0.7-0.7s-0.3-0.6-0.3-1c0-0.3,0.1-0.6,0.2-0.8c0.1-0.2,0.3-0.4,0.5-0.6
		c0.2-0.2,0.4-0.3,0.7-0.4C162.6,70.3,162.9,70.3,163.3,70.3z M165.2,76.8c0-0.2,0-0.3-0.1-0.4s-0.2-0.2-0.3-0.2
		c-0.1,0-0.3-0.1-0.5-0.1c-0.2,0-0.4,0-0.6-0.1s-0.4,0-0.6,0c-0.2,0-0.4,0-0.6-0.1c-0.2,0.1-0.4,0.2-0.6,0.4
		c-0.1,0.2-0.2,0.3-0.2,0.6c0,0.1,0,0.3,0.1,0.4s0.2,0.2,0.3,0.3c0.1,0.1,0.3,0.2,0.5,0.2c0.2,0,0.5,0.1,0.8,0.1
		c0.3,0,0.5,0,0.8-0.1c0.2-0.1,0.4-0.1,0.6-0.2c0.2-0.1,0.3-0.2,0.4-0.3C165.1,77.1,165.2,76.9,165.2,76.8z M163.3,73.5
		c0.2,0,0.4,0,0.6-0.1c0.2-0.1,0.3-0.1,0.4-0.3c0.1-0.1,0.2-0.2,0.3-0.4c0.1-0.1,0.1-0.3,0.1-0.5c0-0.4-0.1-0.7-0.3-0.9
		c-0.2-0.2-0.6-0.3-1-0.3c-0.4,0-0.8,0.1-1,0.3c-0.2,0.2-0.3,0.5-0.3,0.9c0,0.2,0,0.3,0.1,0.5c0.1,0.2,0.1,0.3,0.3,0.4
		c0.1,0.1,0.2,0.2,0.4,0.3C162.9,73.5,163.1,73.5,163.3,73.5z"/>
	<path class="st36" d="M169.8,70.3c0.4,0,0.7,0.1,1,0.2c0.3,0.1,0.6,0.3,0.8,0.5c0.2,0.2,0.4,0.5,0.5,0.9c0.1,0.3,0.2,0.7,0.2,1.2
		c0,0.2,0,0.3-0.1,0.3c0,0.1-0.1,0.1-0.2,0.1h-4c0,0.4,0.1,0.7,0.2,1c0.1,0.3,0.2,0.5,0.4,0.7c0.2,0.2,0.4,0.3,0.6,0.4
		c0.2,0.1,0.5,0.1,0.8,0.1c0.3,0,0.5,0,0.7-0.1c0.2-0.1,0.4-0.1,0.5-0.2c0.1-0.1,0.3-0.1,0.4-0.2c0.1-0.1,0.2-0.1,0.2-0.1
		c0.1,0,0.2,0,0.2,0.1l0.3,0.4c-0.1,0.2-0.3,0.3-0.5,0.4c-0.2,0.1-0.4,0.2-0.6,0.3c-0.2,0.1-0.4,0.1-0.7,0.2s-0.4,0.1-0.7,0.1
		c-0.4,0-0.8-0.1-1.2-0.2c-0.4-0.1-0.7-0.3-0.9-0.6s-0.5-0.6-0.6-1c-0.1-0.4-0.2-0.9-0.2-1.4c0-0.4,0.1-0.8,0.2-1.2
		c0.1-0.4,0.3-0.7,0.6-1c0.2-0.3,0.5-0.5,0.9-0.6C168.9,70.4,169.3,70.3,169.8,70.3z M169.8,71.1c-0.5,0-0.9,0.1-1.2,0.4
		c-0.3,0.3-0.5,0.7-0.6,1.2h3.3c0-0.2,0-0.5-0.1-0.7c-0.1-0.2-0.2-0.4-0.3-0.5s-0.3-0.3-0.5-0.3C170.3,71.1,170,71.1,169.8,71.1z"/>
	<path class="st36" d="M173.7,76.5v-6.1h0.6c0.2,0,0.2,0.1,0.3,0.2l0.1,0.6c0.2-0.3,0.5-0.5,0.8-0.7s0.6-0.3,1-0.3
		c0.4,0,0.7,0.1,1,0.3c0.3,0.2,0.4,0.5,0.5,0.9c0.1-0.2,0.2-0.4,0.3-0.6c0.1-0.2,0.3-0.3,0.5-0.4c0.2-0.1,0.4-0.2,0.5-0.2
		c0.2,0,0.4-0.1,0.6-0.1c0.3,0,0.6,0.1,0.9,0.2c0.2,0.1,0.5,0.3,0.6,0.4c0.2,0.2,0.3,0.4,0.4,0.7c0.1,0.3,0.1,0.6,0.1,1v3.9h-1.1
		v-3.9c0-0.5-0.1-0.8-0.3-1.1s-0.5-0.4-0.9-0.4c-0.2,0-0.3,0-0.5,0.1c-0.2,0.1-0.3,0.2-0.4,0.3c-0.1,0.1-0.2,0.3-0.3,0.5
		c-0.1,0.2-0.1,0.4-0.1,0.6v3.9h-1.1v-3.9c0-0.5-0.1-0.9-0.3-1.1c-0.2-0.2-0.5-0.4-0.9-0.4c-0.3,0-0.5,0.1-0.7,0.2
		c-0.2,0.1-0.4,0.3-0.6,0.6v4.5H173.7z"/>
	<path class="st36" d="M185.9,70.3c0.4,0,0.7,0.1,1,0.2c0.3,0.1,0.6,0.3,0.8,0.5c0.2,0.2,0.4,0.5,0.5,0.9c0.1,0.3,0.2,0.7,0.2,1.2
		c0,0.2,0,0.3-0.1,0.3c0,0.1-0.1,0.1-0.2,0.1h-4c0,0.4,0.1,0.7,0.2,1s0.2,0.5,0.4,0.7c0.2,0.2,0.4,0.3,0.6,0.4
		c0.2,0.1,0.5,0.1,0.8,0.1c0.3,0,0.5,0,0.7-0.1c0.2-0.1,0.4-0.1,0.5-0.2c0.1-0.1,0.3-0.1,0.4-0.2c0.1-0.1,0.2-0.1,0.2-0.1
		c0.1,0,0.2,0,0.2,0.1l0.3,0.4c-0.1,0.2-0.3,0.3-0.5,0.4c-0.2,0.1-0.4,0.2-0.6,0.3c-0.2,0.1-0.4,0.1-0.7,0.2c-0.2,0-0.4,0.1-0.7,0.1
		c-0.4,0-0.8-0.1-1.2-0.2c-0.4-0.1-0.7-0.3-0.9-0.6c-0.3-0.3-0.5-0.6-0.6-1c-0.1-0.4-0.2-0.9-0.2-1.4c0-0.4,0.1-0.8,0.2-1.2
		c0.1-0.4,0.3-0.7,0.6-1c0.2-0.3,0.5-0.5,0.9-0.6C185.1,70.4,185.5,70.3,185.9,70.3z M185.9,71.1c-0.5,0-0.9,0.1-1.2,0.4
		c-0.3,0.3-0.5,0.7-0.6,1.2h3.3c0-0.2,0-0.5-0.1-0.7s-0.2-0.4-0.3-0.5s-0.3-0.3-0.5-0.3C186.4,71.1,186.2,71.1,185.9,71.1z"/>
	<path class="st36" d="M189.8,76.5v-6.1h0.6c0.2,0,0.2,0.1,0.3,0.2l0.1,0.7c0.3-0.3,0.6-0.5,0.9-0.7c0.3-0.2,0.7-0.3,1.1-0.3
		c0.3,0,0.6,0.1,0.9,0.2c0.3,0.1,0.5,0.3,0.6,0.5s0.3,0.4,0.4,0.7c0.1,0.3,0.1,0.6,0.1,0.9v3.9h-1.1v-3.9c0-0.5-0.1-0.8-0.3-1.1
		c-0.2-0.3-0.5-0.4-1-0.4c-0.3,0-0.6,0.1-0.9,0.2c-0.3,0.2-0.5,0.4-0.8,0.6v4.5H189.8z"/>
	<path class="st36" d="M198.3,76.6c-0.5,0-0.8-0.1-1.1-0.4c-0.3-0.3-0.4-0.7-0.4-1.2v-3.7h-0.7c-0.1,0-0.1,0-0.2-0.1
		s-0.1-0.1-0.1-0.2v-0.4l1-0.1l0.2-1.9c0-0.1,0-0.1,0.1-0.1s0.1-0.1,0.2-0.1h0.5v2.1h1.7v0.8h-1.7v3.6c0,0.3,0.1,0.4,0.2,0.6
		s0.3,0.2,0.5,0.2c0.1,0,0.2,0,0.3,0s0.2-0.1,0.2-0.1c0.1,0,0.1-0.1,0.2-0.1c0,0,0.1,0,0.1,0c0.1,0,0.1,0,0.2,0.1l0.3,0.5
		c-0.2,0.2-0.4,0.3-0.7,0.4C198.8,76.5,198.6,76.6,198.3,76.6z"/>
</g>
</svg>
