<?xml version="1.0" encoding="utf-8"?>
<!-- Generator: Adobe Illustrator 24.2.2, SVG Export Plug-In . SVG Version: 6.00 Build 0)  -->
<svg version="1.1" xmlns="http://www.w3.org/2000/svg" xmlns:xlink="http://www.w3.org/1999/xlink" x="0px" y="0px"
	 viewBox="0 0 190 60" style="enable-background:new 0 0 190 60;" xml:space="preserve">
<style type="text/css">
	.st0{display:none;}
	.st1{display:inline;fill:#00BCF1;}
	.st2{fill:#20AF97;}
	.st3{fill:none;}
	.st4{fill:#00A388;}
	.st5{fill:#498C8C;}
	.st6{fill:#D9C5D2;}
	.st7{fill:#C6B9D6;}
	.st8{fill:#498183;}
	.st9{fill:#F22E52;}
	.st10{fill:#D92E52;}
	.st11{fill:#FFD35F;}
	.st12{fill:#FFC85F;}
	.st13{fill:#E81241;}
	.st14{fill:#231F20;}
	.st15{fill:#FC314F;}
	.st16{fill:#81D4E5;}
	.st17{fill:none;stroke:#000000;stroke-miterlimit:10;}
	.st18{fill:none;stroke:#4E566B;stroke-width:2;stroke-linejoin:round;stroke-miterlimit:10;}
	.st19{fill:#4E566B;}
	.st20{fill:#1D2939;}
	.st21{fill:none;stroke:#F22E52;stroke-width:4;stroke-linecap:round;stroke-miterlimit:10;}
	.st22{fill:none;stroke:#4E566B;stroke-width:4;stroke-linecap:round;stroke-miterlimit:10;}
	.st23{fill:#FF6138;}
	.st24{fill:#424A60;}
	.st25{fill:#EBBA16;}
	.st26{fill:#7383BF;}
	.st27{fill:#43B05C;}
	.st28{fill:#FFFFFF;}
	.st29{fill:none;stroke:#333333;stroke-width:2;stroke-miterlimit:10;}
	.st30{fill:none;stroke:#FFD35F;stroke-width:5;stroke-miterlimit:10;}
	.st31{fill:#8CD0D8;}
	.st32{display:inline;fill:#81D4E5;}
	.st33{display:inline;fill:#FC314F;}
	.st34{fill:none;stroke:#333333;stroke-width:2;stroke-linejoin:round;stroke-miterlimit:10;}
	.st35{fill:none;stroke:#333333;stroke-width:3;stroke-miterlimit:10;}
	.st36{fill:#4BB5C1;}
	.st37{fill:#333333;}
	.st38{fill:#B7E1E6;}
	.st39{fill:#CCCCCC;}
	.st40{fill:#B4B4B4;}
	.st41{fill:#53A9C1;}
	.st42{fill:#0A9388;}
	.st43{fill:#E95A38;}
	.st44{fill:#935D55;}
	.st45{fill:#95A841;}
	.st46{fill:#F57D0B;}
	.st47{fill:#BC2822;}
	.st48{fill:#FFCB03;}
	.st49{fill:#F29401;}
	.st50{fill:#AF8667;}
	.st51{fill:#E4D7C8;}
	.st52{fill:#D49D54;}
	.st53{fill:#7B261C;}
	.st54{fill:url(#SVGID_1_);}
	.st55{fill:url(#SVGID_2_);}
	.st56{fill:url(#SVGID_3_);}
	.st57{fill:url(#SVGID_4_);}
	.st58{fill:url(#SVGID_5_);}
	.st59{fill:url(#SVGID_6_);}
	.st60{fill:url(#SVGID_7_);}
	.st61{fill:url(#SVGID_8_);}
	.st62{fill:url(#SVGID_9_);}
	.st63{fill:url(#SVGID_10_);}
	.st64{fill:url(#SVGID_11_);}
	.st65{fill:url(#SVGID_12_);}
	.st66{fill:url(#SVGID_13_);}
	.st67{fill:url(#SVGID_14_);}
	.st68{fill:url(#SVGID_15_);}
	.st69{font-family:'QuicksandBook-Regular';}
	.st70{font-size:20.3163px;}
	.st71{fill:url(#SVGID_16_);}
	.st72{fill:url(#SVGID_17_);}
	.st73{fill:url(#SVGID_18_);}
	.st74{fill:url(#SVGID_19_);}
	.st75{fill:url(#SVGID_20_);}
</style>
<g id="Layer_1">
</g>
<g id="Layer_2">
	<g>
		<path class="st44" d="M169.757,40.121c-6.656,0-12.07-5.415-12.07-12.07c0-6.655,5.415-12.07,12.07-12.07
			c6.655,0,12.07,5.415,12.07,12.07C181.827,34.707,176.412,40.121,169.757,40.121z M169.757,17.797
			c-5.655,0-10.255,4.6-10.255,10.254c0,5.655,4.6,10.255,10.255,10.255c5.654,0,10.254-4.6,10.254-10.255
			C180.011,22.397,175.411,17.797,169.757,17.797z"/>
		<circle class="st45" cx="169.757" cy="28.051" r="4.464"/>
		<g>
			
				<rect x="174.26" y="13.602" transform="matrix(0.6294 -0.7771 0.7771 0.6294 55.5326 145.4563)" class="st44" width="11.992" height="1.816"/>
			<circle class="st46" cx="185.888" cy="7.289" r="3.631"/>
		</g>
		<g>
			
				<rect x="151.902" y="16.935" transform="matrix(0.2877 -0.9577 0.9577 0.2877 86.8783 162.6799)" class="st44" width="1.816" height="11.992"/>
			<circle class="st47" cx="143.862" cy="20.167" r="3.631"/>
		</g>
		<g>
			
				<rect x="173.312" y="39.385" transform="matrix(0.9784 -0.2068 0.2068 0.9784 -5.6189 37.0108)" class="st44" width="1.816" height="11.992"/>
			<circle class="st48" cx="176.087" cy="54.214" r="3.631"/>
		</g>
	</g>
	<text transform="matrix(1 0 0 1 -0.3217 57.3124)" class="st44 st69 st70">Linked Data Hub</text>
	<g>
		<linearGradient id="SVGID_1_" gradientUnits="userSpaceOnUse" x1="1.8911" y1="20.0741" x2="129.29" y2="23.2913">
			<stop  offset="0" style="stop-color:#B5A64C"/>
			<stop  offset="0.5" style="stop-color:#95A841"/>
			<stop  offset="1" style="stop-color:#9A8F29"/>
		</linearGradient>
		<path class="st54" d="M1.834,29.966c0-1.904,2.369-3.622,2.602-3.39c1.81,2.136,5.247,4.04,8.917,4.04
			c3.575,0,5.48-1.3,5.48-3.623c0-2.694-3.019-3.25-6.549-4.04C7.5,21.885,2.577,20.12,2.577,13.944
			c0-5.573,4.458-9.242,11.703-9.242c4.041,0,6.919,0.975,8.639,2.229c1.44,0.975,2.09,2.183,2.09,3.298
			c0,2.136-2.555,3.715-2.694,3.576c-1.765-2.09-4.782-3.669-7.987-3.669c-3.252,0-5.202,1.347-5.202,3.53
			c0,2.6,2.694,2.972,6.409,3.808c5.433,1.207,10.17,3.437,10.17,9.103c0,5.991-4.412,9.474-12.307,9.474
			c-4.644,0-7.894-1.207-9.706-2.74C2.391,32.288,1.834,31.08,1.834,29.966z"/>
		<linearGradient id="SVGID_2_" gradientUnits="userSpaceOnUse" x1="1.9043" y1="19.5541" x2="129.3031" y2="22.7712">
			<stop  offset="0" style="stop-color:#B5A64C"/>
			<stop  offset="0.5" style="stop-color:#95A841"/>
			<stop  offset="1" style="stop-color:#9A8F29"/>
		</linearGradient>
		<path class="st55" d="M30.857,32.474V9.16c0-2.415,1.347-3.808,3.577-3.808h7.802c7.942,0,12.354,3.53,12.354,10.17
			c0,6.688-4.273,10.124-12.307,10.124h-4.551v6.827c0,1.95-1.022,3.112-3.019,3.112h-0.975
			C31.879,35.585,30.857,34.517,30.857,32.474z M47.901,15.569c0-3.205-1.997-4.876-5.806-4.876h-4.457v9.799h4.505
			C45.904,20.492,47.901,18.773,47.901,15.569z"/>
		<linearGradient id="SVGID_3_" gradientUnits="userSpaceOnUse" x1="1.9227" y1="18.8265" x2="129.3215" y2="22.0436">
			<stop  offset="0" style="stop-color:#B5A64C"/>
			<stop  offset="0.5" style="stop-color:#95A841"/>
			<stop  offset="1" style="stop-color:#9A8F29"/>
		</linearGradient>
		<path class="st56" d="M59.88,8.278c0-2.09,1.022-3.111,2.926-3.111h0.929c1.997,0,3.019,1.021,3.019,3.111v24.196
			c0,2.044-1.022,3.112-3.019,3.112h-0.929c-1.904,0-2.926-1.068-2.926-3.112V8.278z"/>
		<linearGradient id="SVGID_4_" gradientUnits="userSpaceOnUse" x1="1.9385" y1="18.1991" x2="129.3373" y2="21.4162">
			<stop  offset="0" style="stop-color:#B5A64C"/>
			<stop  offset="0.5" style="stop-color:#95A841"/>
			<stop  offset="1" style="stop-color:#9A8F29"/>
		</linearGradient>
		<path class="st57" d="M88.162,4.702c3.994,0,6.873,1.115,8.778,2.508c1.857,1.394,2.74,3.065,2.74,4.319
			c0,3.019-3.855,3.715-3.947,3.483c-1.487-2.647-4.273-4.087-7.339-4.087c-5.015,0-8.637,3.762-8.637,9.428
			c0,5.619,3.715,9.474,8.731,9.474c3.483,0,6.269-1.719,7.431-4.505c0.093-0.279,4.087,0.418,4.087,3.437
			c0,1.3-0.93,3.112-2.88,4.598c-1.95,1.486-4.922,2.694-9.057,2.694c-9.102,0-15.371-6.455-15.371-15.651
			C72.697,11.25,79.013,4.702,88.162,4.702z"/>
		<linearGradient id="SVGID_5_" gradientUnits="userSpaceOnUse" x1="1.9568" y1="17.474" x2="129.3557" y2="20.6911">
			<stop  offset="0" style="stop-color:#B5A64C"/>
			<stop  offset="0.5" style="stop-color:#95A841"/>
			<stop  offset="1" style="stop-color:#9A8F29"/>
		</linearGradient>
		<path class="st58" d="M104.924,31.638V9.16c0-2.415,1.346-3.808,3.576-3.808h16.719c2.137,0,3.158,0.929,3.158,2.74v0.232
			c0,1.857-1.021,2.74-3.158,2.74h-13.468v6.363h9.845c2.23,0,3.158,0.836,3.158,2.554v0.139c0,1.811-0.976,2.647-3.158,2.647
			h-9.845v7.013h13.7c2.136,0,3.112,0.789,3.112,2.554v0.232c0,1.904-0.976,2.833-3.112,2.833H108.5
			C106.27,35.399,104.924,34.053,104.924,31.638z"/>
	</g>
</g>
</svg>
